<?xml version="1.0" encoding="utf-8" standalone="no"?>
<!DOCTYPE svg PUBLIC "-//W3C//DTD SVG 1.1//EN"
  "http://www.w3.org/Graphics/SVG/1.1/DTD/svg11.dtd">
<svg xmlns:xlink="http://www.w3.org/1999/xlink" width="701.731983pt" height="583.918125pt" viewBox="0 0 701.731983 583.918125" xmlns="http://www.w3.org/2000/svg" version="1.1">
 <metadata>
  <rdf:RDF xmlns:dc="http://purl.org/dc/elements/1.1/" xmlns:cc="http://creativecommons.org/ns#" xmlns:rdf="http://www.w3.org/1999/02/22-rdf-syntax-ns#">
   <cc:Work>
    <dc:type rdf:resource="http://purl.org/dc/dcmitype/StillImage"/>
    <dc:date>1980-01-01T00:00:00+00:00</dc:date>
    <dc:format>image/svg+xml</dc:format>
    <dc:creator>
     <cc:Agent>
      <dc:title>Matplotlib v3.8.2, https://matplotlib.org/</dc:title>
     </cc:Agent>
    </dc:creator>
   </cc:Work>
  </rdf:RDF>
 </metadata>
 <defs>
  <style type="text/css">*{stroke-linejoin: round; stroke-linecap: butt}</style>
 </defs>
 <g id="figure_1">
  <g id="patch_1">
   <path d="M 0 583.918125 
L 701.731983 583.918125 
L 701.731983 0 
L 0 0 
L 0 583.918125 
z
" style="fill: none"/>
  </g>
  <g id="axes_1">
   <g id="matplotlib.axis_1"/>
   <g id="matplotlib.axis_2"/>
   <g id="patch_2">
    <path d="M 582.455726 299.518125 
C 582.455726 275.114982 578.427632 250.878346 570.534131 227.787092 
C 562.640631 204.695837 550.989442 183.065076 536.051134 163.768435 
C 521.112826 144.471794 503.091254 127.772603 482.714276 114.345311 
C 462.337298 100.91802 439.882986 90.945862 416.258229 84.831596 
C 392.633472 78.717329 368.160663 76.544392 343.828214 78.400544 
C 319.495764 80.256696 295.635725 86.116608 273.211759 95.743609 
C 250.787793 105.370611 230.105907 118.633326 212.001405 134.996101 
C 193.896902 151.358875 178.616844 170.598414 166.778364 191.937669 
C 154.939885 213.276923 146.704536 236.424689 142.404928 260.446071 
C 138.105321 284.467453 137.800129 309.034644 141.50168 333.155422 
C 145.20323 357.2762 152.861009 380.621402 164.165733 402.248158 
C 175.470458 423.874915 190.267859 443.488098 207.960296 460.295568 
C 225.652734 477.103038 245.99877 490.875433 268.176665 501.056511 
C 290.354561 511.237589 314.061667 517.688415 338.340497 520.148452 
C 362.619328 522.60849 387.138564 521.044167 410.907919 515.518665 
C 434.677273 509.993163 457.37238 500.581885 478.076626 487.664934 
L 360.695726 299.518125 
z
" style="fill: #1f77b4; stroke: #ffffff; stroke-linejoin: miter"/>
   </g>
   <g id="patch_3">
    <path d="M 478.076626 487.664934 
C 510.010975 467.741755 536.353347 440.012372 554.613087 407.098581 
C 572.872827 374.184791 582.455726 337.157675 582.455726 299.518125 
L 360.695726 299.518125 
z
" style="fill: #ff7f0e; stroke: #ffffff; stroke-linejoin: miter"/>
   </g>
   <g id="patch_4">
    <path d="M 582.455726 299.518125 
C 582.455726 258.060949 570.830337 217.422814 548.905228 182.237774 
C 526.980119 147.052734 495.621608 118.711042 458.405574 100.444563 
C 421.18954 82.178084 379.586486 74.708574 338.340497 78.887798 
C 297.094509 83.067021 257.835324 98.729846 225.039752 124.090207 
C 192.24418 149.450568 167.20806 183.50641 152.786314 222.374272 
C 138.364568 261.242134 135.127038 303.386245 143.442907 344.000821 
C 151.758775 384.615397 171.29946 422.09565 199.836695 452.167625 
C 228.37393 482.2396 264.780133 503.715075 304.903828 514.145154 
L 360.695726 299.518125 
z
" style="fill: #2ca02c; stroke: #ffffff; stroke-linejoin: miter"/>
   </g>
   <g id="patch_5">
    <path d="M 304.903828 514.145154 
C 347.562716 525.234253 392.574409 523.357344 434.162021 508.755313 
C 475.749634 494.153283 512.054506 467.478734 538.417201 432.155128 
L 360.695726 299.518125 
z
" style="fill: #d62728; stroke: #ffffff; stroke-linejoin: miter"/>
   </g>
   <g id="patch_6">
    <path d="M 538.417201 432.155128 
C 552.620655 413.123797 563.675384 391.933955 571.158324 369.396536 
C 578.641264 346.859117 582.455725 323.265338 582.455726 299.518135 
L 360.695726 299.518125 
z
" style="fill: #9467bd; stroke: #ffffff; stroke-linejoin: miter"/>
   </g>
   <g id="patch_7">
    <path d="M 582.455726 299.518125 
C 582.455726 261.356886 572.605346 223.833974 553.861194 190.593382 
C 535.117042 157.352791 508.106189 129.506557 475.451762 109.758936 
C 442.797335 90.011315 405.591762 79.022947 367.448218 77.860954 
C 329.304674 76.698961 291.499222 85.402218 257.703292 103.125517 
C 223.907363 120.848817 195.251574 146.99924 174.518797 179.037219 
C 153.78602 211.075198 141.669854 247.928929 139.346946 286.019403 
C 137.024039 324.109878 144.572101 362.16281 161.258111 396.482735 
C 177.944122 430.80266 203.209863 460.24143 234.601683 481.940136 
L 360.695726 299.518125 
z
" style="fill: #8c564b; stroke: #ffffff; stroke-linejoin: miter"/>
   </g>
   <g id="patch_8">
    <path d="M 234.601683 481.940136 
C 263.717776 502.065809 297.233482 514.931288 332.337659 519.457475 
C 367.441835 523.983662 403.124795 520.040372 436.393614 507.95835 
C 469.662433 495.876328 499.560215 476.003085 523.579269 450.005496 
C 547.598324 424.007908 565.047801 392.633733 574.46412 358.514492 
L 360.695726 299.518125 
z
" style="fill: #e377c2; stroke: #ffffff; stroke-linejoin: miter"/>
   </g>
   <g id="patch_9">
    <path d="M 574.46412 358.514492 
C 577.11287 348.916967 579.112269 339.151947 580.44874 329.285731 
C 581.785211 319.419515 582.455724 309.474484 582.455726 299.518161 
L 360.695726 299.518125 
z
" style="fill: #7f7f7f; stroke: #ffffff; stroke-linejoin: miter"/>
   </g>
   <g id="patch_10">
    <path d="M 582.455726 299.518125 
C 582.455726 251.236904 566.688164 204.251714 537.563175 165.744425 
C 508.438187 127.237136 467.519395 99.275079 421.0614 86.132364 
C 374.603405 72.989649 325.100383 75.371866 280.119067 92.914883 
C 235.13775 110.4579 197.093039 142.21989 171.800216 183.345908 
L 360.695726 299.518125 
z
" style="fill: #bcbd22; stroke: #ffffff; stroke-linejoin: miter"/>
   </g>
   <g id="patch_11">
    <path d="M 171.800216 183.345908 
C 152.502414 214.724049 141.323825 250.421695 139.277984 287.202225 
C 137.232144 323.982756 144.38281 360.699928 160.081649 394.024684 
C 175.780487 427.34944 199.538253 456.243233 229.200888 478.086334 
C 258.863522 499.929434 293.506605 514.041114 329.989134 519.141901 
L 360.695726 299.518125 
z
" style="fill: #17becf; stroke: #ffffff; stroke-linejoin: miter"/>
   </g>
   <g id="patch_12">
    <path d="M 329.989134 519.141901 
C 354.925236 522.62833 380.273962 521.842561 404.946248 516.818352 
C 429.618535 511.794144 453.255914 502.604495 474.842847 489.644221 
L 360.695726 299.518125 
z
" style="fill: #1f77b4; stroke: #ffffff; stroke-linejoin: miter"/>
   </g>
   <g id="patch_13">
    <path d="M 474.842847 489.644221 
C 492.750766 478.892738 509.050188 465.664864 523.257301 450.353239 
C 537.464415 435.041614 549.437245 417.799249 558.820406 399.137946 
L 360.695726 299.518125 
z
" style="fill: #ff7f0e; stroke: #ffffff; stroke-linejoin: miter"/>
   </g>
   <g id="patch_14">
    <path d="M 558.820406 399.137946 
C 564.643429 387.557073 569.439859 375.487912 573.154574 363.069171 
C 576.869288 350.650431 579.488001 337.929868 580.980617 325.053676 
L 360.695726 299.518125 
z
" style="fill: #2ca02c; stroke: #ffffff; stroke-linejoin: miter"/>
   </g>
   <g id="patch_15">
    <path d="M 580.980617 325.053676 
C 581.471808 320.816369 581.840636 316.565772 582.086641 312.307191 
C 582.332646 308.048609 582.455726 303.783816 582.455726 299.518135 
L 360.695726 299.518125 
z
" style="fill: #d62728; stroke: #ffffff; stroke-linejoin: miter"/>
   </g>
   <g id="patch_16">
    <path d="M 582.455726 299.518125 
C 582.455726 264.523794 574.172425 230.021365 558.285331 198.841188 
C 542.398236 167.661011 519.353986 140.679662 491.042977 120.110511 
C 462.731967 99.541361 429.950113 85.962674 395.38662 80.488357 
C 360.823128 75.014039 325.449687 77.797992 292.168101 88.611837 
C 258.886516 99.425682 228.632438 117.965409 203.887711 142.71014 
C 179.142985 167.454871 160.603264 197.708952 149.789425 230.99054 
C 138.975586 264.272128 136.19164 299.645569 141.665964 334.209061 
C 147.140288 368.772552 160.718981 401.554404 181.288137 429.865409 
L 360.695726 299.518125 
z
" style="fill: #9467bd; stroke: #ffffff; stroke-linejoin: miter"/>
   </g>
   <g id="patch_17">
    <path d="M 181.288137 429.865409 
C 208.810504 467.746686 247.636032 495.955074 292.168151 510.424429 
C 336.700269 524.893783 384.691256 524.893776 429.22337 510.424407 
C 473.755483 495.955037 512.581003 467.746636 540.103358 429.865351 
C 567.625712 391.984065 582.455734 346.341921 582.455726 299.518083 
L 360.695726 299.518125 
z
" style="fill: #8c564b; stroke: #ffffff; stroke-linejoin: miter"/>
   </g>
   <g id="patch_18">
    <path d="M 582.455726 299.518125 
C 582.455726 247.502623 564.154776 197.109507 530.776661 157.215725 
C 497.398546 117.321942 451.025422 90.416102 399.826098 81.237774 
L 360.695726 299.518125 
z
" style="fill: #e377c2; stroke: #ffffff; stroke-linejoin: miter"/>
   </g>
   <g id="patch_19">
    <path d="M 399.826098 81.237774 
C 354.055479 73.032632 306.843194 79.42797 264.904887 99.514093 
C 222.966581 119.600216 188.389711 152.377346 166.092616 193.183148 
L 360.695726 299.518125 
z
" style="fill: #7f7f7f; stroke: #ffffff; stroke-linejoin: miter"/>
   </g>
   <g id="patch_20">
    <path d="M 166.092616 193.183148 
C 146.348791 229.316223 137.053275 270.244083 139.252168 311.360779 
C 141.451062 352.477474 155.058664 392.180491 178.543598 426.001721 
L 360.695726 299.518125 
z
" style="fill: #bcbd22; stroke: #ffffff; stroke-linejoin: miter"/>
   </g>
   <g id="patch_21">
    <path d="M 178.543598 426.001721 
C 191.634804 444.854687 207.573963 461.561444 225.790811 475.524266 
C 244.00766 489.487088 264.282326 500.537447 285.889432 508.279989 
L 360.695726 299.518125 
z
" style="fill: #17becf; stroke: #ffffff; stroke-linejoin: miter"/>
   </g>
   <g id="patch_22">
    <path d="M 285.889432 508.279989 
C 305.4032 515.272419 325.801357 519.494401 346.487521 520.822496 
C 367.173684 522.150591 387.944268 520.571729 408.191999 516.132071 
L 360.695726 299.518125 
z
" style="fill: #1f77b4; stroke: #ffffff; stroke-linejoin: miter"/>
   </g>
   <g id="patch_23">
    <path d="M 408.191999 516.132071 
C 423.947317 512.677451 439.278809 507.514185 453.914154 500.733985 
C 468.549498 493.953785 482.401526 485.597033 495.224193 475.812166 
L 360.695726 299.518125 
z
" style="fill: #ff7f0e; stroke: #ffffff; stroke-linejoin: miter"/>
   </g>
   <g id="patch_24">
    <path d="M 495.224193 475.812166 
C 505.654844 467.852626 515.358542 458.983054 524.221035 449.30788 
C 533.083528 439.632707 541.069895 429.190054 548.086106 418.102875 
L 360.695726 299.518125 
z
" style="fill: #2ca02c; stroke: #ffffff; stroke-linejoin: miter"/>
   </g>
   <g id="patch_25">
    <path d="M 548.086106 418.102875 
C 554.848404 407.416934 560.684279 396.172118 565.529884 384.491445 
C 570.37549 372.810771 574.213092 360.736993 577.000708 348.402196 
L 360.695726 299.518125 
z
" style="fill: #d62728; stroke: #ffffff; stroke-linejoin: miter"/>
   </g>
   <g id="patch_26">
    <path d="M 577.000708 348.402196 
C 578.812021 340.387393 580.176474 332.278108 581.087752 324.111867 
C 581.999031 315.945626 582.455726 307.735044 582.455726 299.518115 
L 360.695726 299.518125 
z
" style="fill: #9467bd; stroke: #ffffff; stroke-linejoin: miter"/>
   </g>
   <g id="patch_27">
    <path d="M 582.455726 299.518125 
C 582.455726 245.792937 562.931945 193.856376 527.54085 153.435265 
C 492.149756 113.014153 443.247839 86.799903 389.993586 79.70199 
C 336.739333 72.604078 282.678641 85.095114 237.936145 114.835741 
C 193.19365 144.576368 160.748499 189.586329 146.677109 241.436033 
L 360.695726 299.518125 
z
" style="fill: #8c564b; stroke: #ffffff; stroke-linejoin: miter"/>
   </g>
   <g id="patch_28">
    <path d="M 146.677109 241.436033 
C 136.902832 277.451906 136.376215 315.359034 145.146227 351.63253 
C 153.916239 387.906026 171.702351 421.3856 196.850678 448.958072 
C 221.999005 476.530545 253.705121 497.313948 289.020756 509.375687 
C 324.336391 521.437426 362.131894 524.391678 398.892759 517.963734 
L 360.695726 299.518125 
z
" style="fill: #e377c2; stroke: #ffffff; stroke-linejoin: miter"/>
   </g>
   <g id="patch_29">
    <path d="M 398.892759 517.963734 
C 450.291104 508.976306 496.904194 482.130596 530.472155 442.183684 
C 564.040116 402.236772 582.455726 351.696318 582.455726 299.518125 
L 360.695726 299.518125 
z
" style="fill: #7f7f7f; stroke: #ffffff; stroke-linejoin: miter"/>
   </g>
   <g id="patch_30">
    <path d="M 582.455726 299.518125 
C 582.455726 257.618093 570.58064 216.563721 548.212709 181.133672 
C 525.844778 145.703623 493.886897 117.328053 456.058912 99.309833 
C 418.230927 81.291612 376.059789 74.358058 334.454148 79.316224 
C 292.848508 84.27439 253.487804 100.924137 220.953559 127.327462 
C 188.419313 153.730787 164.024791 188.821903 150.609475 228.51626 
C 137.194159 268.210618 135.299567 310.905929 145.146227 351.63253 
C 154.992887 392.35913 176.183331 429.473065 206.251027 458.654333 
C 236.318723 487.8356 274.049969 507.90628 315.052909 516.530177 
L 360.695726 299.518125 
z
" style="fill: #bcbd22; stroke: #ffffff; stroke-linejoin: miter"/>
   </g>
   <g id="patch_31">
    <path d="M 315.052909 516.530177 
C 347.340436 523.321015 380.740206 522.821319 412.81013 515.067624 
C 444.880055 507.313929 474.81899 492.499932 500.437893 471.708788 
C 526.056795 450.917643 546.715675 424.668738 560.904018 394.881311 
C 575.092361 365.093885 582.455726 332.512062 582.455726 299.518125 
L 360.695726 299.518125 
z
" style="fill: #17becf; stroke: #ffffff; stroke-linejoin: miter"/>
   </g>
   <g id="text_1">
    <!-- Yes -->
    <g style="fill: #262626" transform="translate(131.241316 183.938998) scale(0.1 -0.1)">
     <defs>
      <path id="DejaVuSans-59" d="M -13 4666 
L 666 4666 
L 1959 2747 
L 3244 4666 
L 3922 4666 
L 2272 2222 
L 2272 0 
L 1638 0 
L 1638 2222 
L -13 4666 
z
" transform="scale(0.015625)"/>
      <path id="DejaVuSans-65" d="M 3597 1894 
L 3597 1613 
L 953 1613 
Q 991 1019 1311 708 
Q 1631 397 2203 397 
Q 2534 397 2845 478 
Q 3156 559 3463 722 
L 3463 178 
Q 3153 47 2828 -22 
Q 2503 -91 2169 -91 
Q 1331 -91 842 396 
Q 353 884 353 1716 
Q 353 2575 817 3079 
Q 1281 3584 2069 3584 
Q 2775 3584 3186 3129 
Q 3597 2675 3597 1894 
z
M 3022 2063 
Q 3016 2534 2758 2815 
Q 2500 3097 2075 3097 
Q 1594 3097 1305 2825 
Q 1016 2553 972 2059 
L 3022 2063 
z
" transform="scale(0.015625)"/>
      <path id="DejaVuSans-73" d="M 2834 3397 
L 2834 2853 
Q 2591 2978 2328 3040 
Q 2066 3103 1784 3103 
Q 1356 3103 1142 2972 
Q 928 2841 928 2578 
Q 928 2378 1081 2264 
Q 1234 2150 1697 2047 
L 1894 2003 
Q 2506 1872 2764 1633 
Q 3022 1394 3022 966 
Q 3022 478 2636 193 
Q 2250 -91 1575 -91 
Q 1294 -91 989 -36 
Q 684 19 347 128 
L 347 722 
Q 666 556 975 473 
Q 1284 391 1588 391 
Q 1994 391 2212 530 
Q 2431 669 2431 922 
Q 2431 1156 2273 1281 
Q 2116 1406 1581 1522 
L 1381 1569 
Q 847 1681 609 1914 
Q 372 2147 372 2553 
Q 372 3047 722 3315 
Q 1072 3584 1716 3584 
Q 2034 3584 2315 3537 
Q 2597 3491 2834 3397 
z
" transform="scale(0.015625)"/>
     </defs>
     <use xlink:href="#DejaVuSans-59"/>
     <use xlink:href="#DejaVuSans-65" x="47.833984"/>
     <use xlink:href="#DejaVuSans-73" x="109.357422"/>
    </g>
   </g>
   <g id="text_2">
    <!-- No -->
    <g style="fill: #262626" transform="translate(574.004823 420.616002) scale(0.1 -0.1)">
     <defs>
      <path id="DejaVuSans-4e" d="M 628 4666 
L 1478 4666 
L 3547 763 
L 3547 4666 
L 4159 4666 
L 4159 0 
L 3309 0 
L 1241 3903 
L 1241 0 
L 628 0 
L 628 4666 
z
" transform="scale(0.015625)"/>
      <path id="DejaVuSans-6f" d="M 1959 3097 
Q 1497 3097 1228 2736 
Q 959 2375 959 1747 
Q 959 1119 1226 758 
Q 1494 397 1959 397 
Q 2419 397 2687 759 
Q 2956 1122 2956 1747 
Q 2956 2369 2687 2733 
Q 2419 3097 1959 3097 
z
M 1959 3584 
Q 2709 3584 3137 3096 
Q 3566 2609 3566 1747 
Q 3566 888 3137 398 
Q 2709 -91 1959 -91 
Q 1206 -91 779 398 
Q 353 888 353 1747 
Q 353 2609 779 3096 
Q 1206 3584 1959 3584 
z
" transform="scale(0.015625)"/>
     </defs>
     <use xlink:href="#DejaVuSans-4e"/>
     <use xlink:href="#DejaVuSans-6f" x="74.804688"/>
    </g>
   </g>
   <g id="text_3">
    <!-- Travel_Rarely -->
    <g style="fill: #262626" transform="translate(145.16478 109.167728) scale(0.1 -0.1)">
     <defs>
      <path id="DejaVuSans-54" d="M -19 4666 
L 3928 4666 
L 3928 4134 
L 2272 4134 
L 2272 0 
L 1638 0 
L 1638 4134 
L -19 4134 
L -19 4666 
z
" transform="scale(0.015625)"/>
      <path id="DejaVuSans-72" d="M 2631 2963 
Q 2534 3019 2420 3045 
Q 2306 3072 2169 3072 
Q 1681 3072 1420 2755 
Q 1159 2438 1159 1844 
L 1159 0 
L 581 0 
L 581 3500 
L 1159 3500 
L 1159 2956 
Q 1341 3275 1631 3429 
Q 1922 3584 2338 3584 
Q 2397 3584 2469 3576 
Q 2541 3569 2628 3553 
L 2631 2963 
z
" transform="scale(0.015625)"/>
      <path id="DejaVuSans-61" d="M 2194 1759 
Q 1497 1759 1228 1600 
Q 959 1441 959 1056 
Q 959 750 1161 570 
Q 1363 391 1709 391 
Q 2188 391 2477 730 
Q 2766 1069 2766 1631 
L 2766 1759 
L 2194 1759 
z
M 3341 1997 
L 3341 0 
L 2766 0 
L 2766 531 
Q 2569 213 2275 61 
Q 1981 -91 1556 -91 
Q 1019 -91 701 211 
Q 384 513 384 1019 
Q 384 1609 779 1909 
Q 1175 2209 1959 2209 
L 2766 2209 
L 2766 2266 
Q 2766 2663 2505 2880 
Q 2244 3097 1772 3097 
Q 1472 3097 1187 3025 
Q 903 2953 641 2809 
L 641 3341 
Q 956 3463 1253 3523 
Q 1550 3584 1831 3584 
Q 2591 3584 2966 3190 
Q 3341 2797 3341 1997 
z
" transform="scale(0.015625)"/>
      <path id="DejaVuSans-76" d="M 191 3500 
L 800 3500 
L 1894 563 
L 2988 3500 
L 3597 3500 
L 2284 0 
L 1503 0 
L 191 3500 
z
" transform="scale(0.015625)"/>
      <path id="DejaVuSans-6c" d="M 603 4863 
L 1178 4863 
L 1178 0 
L 603 0 
L 603 4863 
z
" transform="scale(0.015625)"/>
      <path id="DejaVuSans-5f" d="M 3263 -1063 
L 3263 -1509 
L -63 -1509 
L -63 -1063 
L 3263 -1063 
z
" transform="scale(0.015625)"/>
      <path id="DejaVuSans-52" d="M 2841 2188 
Q 3044 2119 3236 1894 
Q 3428 1669 3622 1275 
L 4263 0 
L 3584 0 
L 2988 1197 
Q 2756 1666 2539 1819 
Q 2322 1972 1947 1972 
L 1259 1972 
L 1259 0 
L 628 0 
L 628 4666 
L 2053 4666 
Q 2853 4666 3247 4331 
Q 3641 3997 3641 3322 
Q 3641 2881 3436 2590 
Q 3231 2300 2841 2188 
z
M 1259 4147 
L 1259 2491 
L 2053 2491 
Q 2509 2491 2742 2702 
Q 2975 2913 2975 3322 
Q 2975 3731 2742 3939 
Q 2509 4147 2053 4147 
L 1259 4147 
z
" transform="scale(0.015625)"/>
      <path id="DejaVuSans-79" d="M 2059 -325 
Q 1816 -950 1584 -1140 
Q 1353 -1331 966 -1331 
L 506 -1331 
L 506 -850 
L 844 -850 
Q 1081 -850 1212 -737 
Q 1344 -625 1503 -206 
L 1606 56 
L 191 3500 
L 800 3500 
L 1894 763 
L 2988 3500 
L 3597 3500 
L 2059 -325 
z
" transform="scale(0.015625)"/>
     </defs>
     <use xlink:href="#DejaVuSans-54"/>
     <use xlink:href="#DejaVuSans-72" x="46.333984"/>
     <use xlink:href="#DejaVuSans-61" x="87.447266"/>
     <use xlink:href="#DejaVuSans-76" x="148.726562"/>
     <use xlink:href="#DejaVuSans-65" x="207.90625"/>
     <use xlink:href="#DejaVuSans-6c" x="269.429688"/>
     <use xlink:href="#DejaVuSans-5f" x="297.212891"/>
     <use xlink:href="#DejaVuSans-52" x="347.212891"/>
     <use xlink:href="#DejaVuSans-61" x="414.445312"/>
     <use xlink:href="#DejaVuSans-72" x="475.724609"/>
     <use xlink:href="#DejaVuSans-65" x="514.587891"/>
     <use xlink:href="#DejaVuSans-6c" x="576.111328"/>
     <use xlink:href="#DejaVuSans-79" x="603.894531"/>
    </g>
   </g>
   <g id="text_4">
    <!-- Travel_Frequently -->
    <g style="fill: #262626" transform="translate(441.508651 532.299345) scale(0.1 -0.1)">
     <defs>
      <path id="DejaVuSans-46" d="M 628 4666 
L 3309 4666 
L 3309 4134 
L 1259 4134 
L 1259 2759 
L 3109 2759 
L 3109 2228 
L 1259 2228 
L 1259 0 
L 628 0 
L 628 4666 
z
" transform="scale(0.015625)"/>
      <path id="DejaVuSans-71" d="M 947 1747 
Q 947 1113 1208 752 
Q 1469 391 1925 391 
Q 2381 391 2643 752 
Q 2906 1113 2906 1747 
Q 2906 2381 2643 2742 
Q 2381 3103 1925 3103 
Q 1469 3103 1208 2742 
Q 947 2381 947 1747 
z
M 2906 525 
Q 2725 213 2448 61 
Q 2172 -91 1784 -91 
Q 1150 -91 751 415 
Q 353 922 353 1747 
Q 353 2572 751 3078 
Q 1150 3584 1784 3584 
Q 2172 3584 2448 3432 
Q 2725 3281 2906 2969 
L 2906 3500 
L 3481 3500 
L 3481 -1331 
L 2906 -1331 
L 2906 525 
z
" transform="scale(0.015625)"/>
      <path id="DejaVuSans-75" d="M 544 1381 
L 544 3500 
L 1119 3500 
L 1119 1403 
Q 1119 906 1312 657 
Q 1506 409 1894 409 
Q 2359 409 2629 706 
Q 2900 1003 2900 1516 
L 2900 3500 
L 3475 3500 
L 3475 0 
L 2900 0 
L 2900 538 
Q 2691 219 2414 64 
Q 2138 -91 1772 -91 
Q 1169 -91 856 284 
Q 544 659 544 1381 
z
M 1991 3584 
L 1991 3584 
z
" transform="scale(0.015625)"/>
      <path id="DejaVuSans-6e" d="M 3513 2113 
L 3513 0 
L 2938 0 
L 2938 2094 
Q 2938 2591 2744 2837 
Q 2550 3084 2163 3084 
Q 1697 3084 1428 2787 
Q 1159 2491 1159 1978 
L 1159 0 
L 581 0 
L 581 3500 
L 1159 3500 
L 1159 2956 
Q 1366 3272 1645 3428 
Q 1925 3584 2291 3584 
Q 2894 3584 3203 3211 
Q 3513 2838 3513 2113 
z
" transform="scale(0.015625)"/>
      <path id="DejaVuSans-74" d="M 1172 4494 
L 1172 3500 
L 2356 3500 
L 2356 3053 
L 1172 3053 
L 1172 1153 
Q 1172 725 1289 603 
Q 1406 481 1766 481 
L 2356 481 
L 2356 0 
L 1766 0 
Q 1100 0 847 248 
Q 594 497 594 1153 
L 594 3053 
L 172 3053 
L 172 3500 
L 594 3500 
L 594 4494 
L 1172 4494 
z
" transform="scale(0.015625)"/>
     </defs>
     <use xlink:href="#DejaVuSans-54"/>
     <use xlink:href="#DejaVuSans-72" x="46.333984"/>
     <use xlink:href="#DejaVuSans-61" x="87.447266"/>
     <use xlink:href="#DejaVuSans-76" x="148.726562"/>
     <use xlink:href="#DejaVuSans-65" x="207.90625"/>
     <use xlink:href="#DejaVuSans-6c" x="269.429688"/>
     <use xlink:href="#DejaVuSans-5f" x="297.212891"/>
     <use xlink:href="#DejaVuSans-46" x="347.212891"/>
     <use xlink:href="#DejaVuSans-72" x="397.482422"/>
     <use xlink:href="#DejaVuSans-65" x="436.345703"/>
     <use xlink:href="#DejaVuSans-71" x="497.869141"/>
     <use xlink:href="#DejaVuSans-75" x="561.345703"/>
     <use xlink:href="#DejaVuSans-65" x="624.724609"/>
     <use xlink:href="#DejaVuSans-6e" x="686.248047"/>
     <use xlink:href="#DejaVuSans-74" x="749.626953"/>
     <use xlink:href="#DejaVuSans-6c" x="788.835938"/>
     <use xlink:href="#DejaVuSans-79" x="816.619141"/>
    </g>
   </g>
   <g id="text_5">
    <!-- Non-Travel -->
    <g style="fill: #262626" transform="translate(592.204584 379.143752) scale(0.1 -0.1)">
     <defs>
      <path id="DejaVuSans-2d" d="M 313 2009 
L 1997 2009 
L 1997 1497 
L 313 1497 
L 313 2009 
z
" transform="scale(0.015625)"/>
     </defs>
     <use xlink:href="#DejaVuSans-4e"/>
     <use xlink:href="#DejaVuSans-6f" x="74.804688"/>
     <use xlink:href="#DejaVuSans-6e" x="135.986328"/>
     <use xlink:href="#DejaVuSans-2d" x="199.365234"/>
     <use xlink:href="#DejaVuSans-54" x="226.324219"/>
     <use xlink:href="#DejaVuSans-72" x="272.658203"/>
     <use xlink:href="#DejaVuSans-61" x="313.771484"/>
     <use xlink:href="#DejaVuSans-76" x="375.050781"/>
     <use xlink:href="#DejaVuSans-65" x="434.230469"/>
     <use xlink:href="#DejaVuSans-6c" x="495.753906"/>
    </g>
   </g>
   <g id="text_6">
    <!-- Sales -->
    <g style="fill: #262626" transform="translate(220.786862 86.245632) scale(0.1 -0.1)">
     <defs>
      <path id="DejaVuSans-53" d="M 3425 4513 
L 3425 3897 
Q 3066 4069 2747 4153 
Q 2428 4238 2131 4238 
Q 1616 4238 1336 4038 
Q 1056 3838 1056 3469 
Q 1056 3159 1242 3001 
Q 1428 2844 1947 2747 
L 2328 2669 
Q 3034 2534 3370 2195 
Q 3706 1856 3706 1288 
Q 3706 609 3251 259 
Q 2797 -91 1919 -91 
Q 1588 -91 1214 -16 
Q 841 59 441 206 
L 441 856 
Q 825 641 1194 531 
Q 1563 422 1919 422 
Q 2459 422 2753 634 
Q 3047 847 3047 1241 
Q 3047 1584 2836 1778 
Q 2625 1972 2144 2069 
L 1759 2144 
Q 1053 2284 737 2584 
Q 422 2884 422 3419 
Q 422 4038 858 4394 
Q 1294 4750 2059 4750 
Q 2388 4750 2728 4690 
Q 3069 4631 3425 4513 
z
" transform="scale(0.015625)"/>
     </defs>
     <use xlink:href="#DejaVuSans-53"/>
     <use xlink:href="#DejaVuSans-61" x="63.476562"/>
     <use xlink:href="#DejaVuSans-6c" x="124.755859"/>
     <use xlink:href="#DejaVuSans-65" x="152.539062"/>
     <use xlink:href="#DejaVuSans-73" x="214.0625"/>
    </g>
   </g>
   <g id="text_7">
    <!-- Research &amp; Development -->
    <g style="fill: #262626" transform="translate(443.963403 531.561747) scale(0.1 -0.1)">
     <defs>
      <path id="DejaVuSans-63" d="M 3122 3366 
L 3122 2828 
Q 2878 2963 2633 3030 
Q 2388 3097 2138 3097 
Q 1578 3097 1268 2742 
Q 959 2388 959 1747 
Q 959 1106 1268 751 
Q 1578 397 2138 397 
Q 2388 397 2633 464 
Q 2878 531 3122 666 
L 3122 134 
Q 2881 22 2623 -34 
Q 2366 -91 2075 -91 
Q 1284 -91 818 406 
Q 353 903 353 1747 
Q 353 2603 823 3093 
Q 1294 3584 2113 3584 
Q 2378 3584 2631 3529 
Q 2884 3475 3122 3366 
z
" transform="scale(0.015625)"/>
      <path id="DejaVuSans-68" d="M 3513 2113 
L 3513 0 
L 2938 0 
L 2938 2094 
Q 2938 2591 2744 2837 
Q 2550 3084 2163 3084 
Q 1697 3084 1428 2787 
Q 1159 2491 1159 1978 
L 1159 0 
L 581 0 
L 581 4863 
L 1159 4863 
L 1159 2956 
Q 1366 3272 1645 3428 
Q 1925 3584 2291 3584 
Q 2894 3584 3203 3211 
Q 3513 2838 3513 2113 
z
" transform="scale(0.015625)"/>
      <path id="DejaVuSans-20" transform="scale(0.015625)"/>
      <path id="DejaVuSans-26" d="M 1556 2509 
Q 1272 2256 1139 2004 
Q 1006 1753 1006 1478 
Q 1006 1022 1337 719 
Q 1669 416 2169 416 
Q 2466 416 2725 514 
Q 2984 613 3213 813 
L 1556 2509 
z
M 1997 2859 
L 3584 1234 
Q 3769 1513 3872 1830 
Q 3975 2147 3994 2503 
L 4575 2503 
Q 4538 2091 4375 1687 
Q 4213 1284 3922 891 
L 4794 0 
L 4006 0 
L 3559 459 
Q 3234 181 2878 45 
Q 2522 -91 2113 -91 
Q 1359 -91 881 339 
Q 403 769 403 1441 
Q 403 1841 612 2192 
Q 822 2544 1241 2853 
Q 1091 3050 1012 3245 
Q 934 3441 934 3628 
Q 934 4134 1281 4442 
Q 1628 4750 2203 4750 
Q 2463 4750 2720 4694 
Q 2978 4638 3244 4525 
L 3244 3956 
Q 2972 4103 2725 4179 
Q 2478 4256 2266 4256 
Q 1938 4256 1733 4082 
Q 1528 3909 1528 3634 
Q 1528 3475 1620 3314 
Q 1713 3153 1997 2859 
z
" transform="scale(0.015625)"/>
      <path id="DejaVuSans-44" d="M 1259 4147 
L 1259 519 
L 2022 519 
Q 2988 519 3436 956 
Q 3884 1394 3884 2338 
Q 3884 3275 3436 3711 
Q 2988 4147 2022 4147 
L 1259 4147 
z
M 628 4666 
L 1925 4666 
Q 3281 4666 3915 4102 
Q 4550 3538 4550 2338 
Q 4550 1131 3912 565 
Q 3275 0 1925 0 
L 628 0 
L 628 4666 
z
" transform="scale(0.015625)"/>
      <path id="DejaVuSans-70" d="M 1159 525 
L 1159 -1331 
L 581 -1331 
L 581 3500 
L 1159 3500 
L 1159 2969 
Q 1341 3281 1617 3432 
Q 1894 3584 2278 3584 
Q 2916 3584 3314 3078 
Q 3713 2572 3713 1747 
Q 3713 922 3314 415 
Q 2916 -91 2278 -91 
Q 1894 -91 1617 61 
Q 1341 213 1159 525 
z
M 3116 1747 
Q 3116 2381 2855 2742 
Q 2594 3103 2138 3103 
Q 1681 3103 1420 2742 
Q 1159 2381 1159 1747 
Q 1159 1113 1420 752 
Q 1681 391 2138 391 
Q 2594 391 2855 752 
Q 3116 1113 3116 1747 
z
" transform="scale(0.015625)"/>
      <path id="DejaVuSans-6d" d="M 3328 2828 
Q 3544 3216 3844 3400 
Q 4144 3584 4550 3584 
Q 5097 3584 5394 3201 
Q 5691 2819 5691 2113 
L 5691 0 
L 5113 0 
L 5113 2094 
Q 5113 2597 4934 2840 
Q 4756 3084 4391 3084 
Q 3944 3084 3684 2787 
Q 3425 2491 3425 1978 
L 3425 0 
L 2847 0 
L 2847 2094 
Q 2847 2600 2669 2842 
Q 2491 3084 2119 3084 
Q 1678 3084 1418 2786 
Q 1159 2488 1159 1978 
L 1159 0 
L 581 0 
L 581 3500 
L 1159 3500 
L 1159 2956 
Q 1356 3278 1631 3431 
Q 1906 3584 2284 3584 
Q 2666 3584 2933 3390 
Q 3200 3197 3328 2828 
z
" transform="scale(0.015625)"/>
     </defs>
     <use xlink:href="#DejaVuSans-52"/>
     <use xlink:href="#DejaVuSans-65" x="64.982422"/>
     <use xlink:href="#DejaVuSans-73" x="126.505859"/>
     <use xlink:href="#DejaVuSans-65" x="178.605469"/>
     <use xlink:href="#DejaVuSans-61" x="240.128906"/>
     <use xlink:href="#DejaVuSans-72" x="301.408203"/>
     <use xlink:href="#DejaVuSans-63" x="340.271484"/>
     <use xlink:href="#DejaVuSans-68" x="395.251953"/>
     <use xlink:href="#DejaVuSans-20" x="458.630859"/>
     <use xlink:href="#DejaVuSans-26" x="490.417969"/>
     <use xlink:href="#DejaVuSans-20" x="568.396484"/>
     <use xlink:href="#DejaVuSans-44" x="600.183594"/>
     <use xlink:href="#DejaVuSans-65" x="677.185547"/>
     <use xlink:href="#DejaVuSans-76" x="738.708984"/>
     <use xlink:href="#DejaVuSans-65" x="797.888672"/>
     <use xlink:href="#DejaVuSans-6c" x="859.412109"/>
     <use xlink:href="#DejaVuSans-6f" x="887.195312"/>
     <use xlink:href="#DejaVuSans-70" x="948.376953"/>
     <use xlink:href="#DejaVuSans-6d" x="1011.853516"/>
     <use xlink:href="#DejaVuSans-65" x="1109.265625"/>
     <use xlink:href="#DejaVuSans-6e" x="1170.789062"/>
     <use xlink:href="#DejaVuSans-74" x="1234.167969"/>
    </g>
   </g>
   <g id="text_8">
    <!-- Human Resources -->
    <g style="fill: #262626" transform="translate(602.424041 335.021866) scale(0.1 -0.1)">
     <defs>
      <path id="DejaVuSans-48" d="M 628 4666 
L 1259 4666 
L 1259 2753 
L 3553 2753 
L 3553 4666 
L 4184 4666 
L 4184 0 
L 3553 0 
L 3553 2222 
L 1259 2222 
L 1259 0 
L 628 0 
L 628 4666 
z
" transform="scale(0.015625)"/>
     </defs>
     <use xlink:href="#DejaVuSans-48"/>
     <use xlink:href="#DejaVuSans-75" x="75.195312"/>
     <use xlink:href="#DejaVuSans-6d" x="138.574219"/>
     <use xlink:href="#DejaVuSans-61" x="235.986328"/>
     <use xlink:href="#DejaVuSans-6e" x="297.265625"/>
     <use xlink:href="#DejaVuSans-20" x="360.644531"/>
     <use xlink:href="#DejaVuSans-52" x="392.431641"/>
     <use xlink:href="#DejaVuSans-65" x="457.414062"/>
     <use xlink:href="#DejaVuSans-73" x="518.9375"/>
     <use xlink:href="#DejaVuSans-6f" x="571.037109"/>
     <use xlink:href="#DejaVuSans-75" x="632.21875"/>
     <use xlink:href="#DejaVuSans-72" x="695.597656"/>
     <use xlink:href="#DejaVuSans-63" x="734.460938"/>
     <use xlink:href="#DejaVuSans-65" x="789.441406"/>
     <use xlink:href="#DejaVuSans-73" x="850.964844"/>
    </g>
   </g>
   <g id="text_9">
    <!-- Life Sciences -->
    <g style="fill: #262626" transform="translate(427.097968 67.553163) scale(0.1 -0.1)">
     <defs>
      <path id="DejaVuSans-4c" d="M 628 4666 
L 1259 4666 
L 1259 531 
L 3531 531 
L 3531 0 
L 628 0 
L 628 4666 
z
" transform="scale(0.015625)"/>
      <path id="DejaVuSans-69" d="M 603 3500 
L 1178 3500 
L 1178 0 
L 603 0 
L 603 3500 
z
M 603 4863 
L 1178 4863 
L 1178 4134 
L 603 4134 
L 603 4863 
z
" transform="scale(0.015625)"/>
      <path id="DejaVuSans-66" d="M 2375 4863 
L 2375 4384 
L 1825 4384 
Q 1516 4384 1395 4259 
Q 1275 4134 1275 3809 
L 1275 3500 
L 2222 3500 
L 2222 3053 
L 1275 3053 
L 1275 0 
L 697 0 
L 697 3053 
L 147 3053 
L 147 3500 
L 697 3500 
L 697 3744 
Q 697 4328 969 4595 
Q 1241 4863 1831 4863 
L 2375 4863 
z
" transform="scale(0.015625)"/>
     </defs>
     <use xlink:href="#DejaVuSans-4c"/>
     <use xlink:href="#DejaVuSans-69" x="55.712891"/>
     <use xlink:href="#DejaVuSans-66" x="83.496094"/>
     <use xlink:href="#DejaVuSans-65" x="118.701172"/>
     <use xlink:href="#DejaVuSans-20" x="180.224609"/>
     <use xlink:href="#DejaVuSans-53" x="212.011719"/>
     <use xlink:href="#DejaVuSans-63" x="275.488281"/>
     <use xlink:href="#DejaVuSans-69" x="330.46875"/>
     <use xlink:href="#DejaVuSans-65" x="358.251953"/>
     <use xlink:href="#DejaVuSans-6e" x="419.775391"/>
     <use xlink:href="#DejaVuSans-63" x="483.154297"/>
     <use xlink:href="#DejaVuSans-65" x="538.134766"/>
     <use xlink:href="#DejaVuSans-73" x="599.658203"/>
    </g>
   </g>
   <g id="text_10">
    <!-- Other -->
    <g style="fill: #262626" transform="translate(111.626491 406.234715) scale(0.1 -0.1)">
     <defs>
      <path id="DejaVuSans-4f" d="M 2522 4238 
Q 1834 4238 1429 3725 
Q 1025 3213 1025 2328 
Q 1025 1447 1429 934 
Q 1834 422 2522 422 
Q 3209 422 3611 934 
Q 4013 1447 4013 2328 
Q 4013 3213 3611 3725 
Q 3209 4238 2522 4238 
z
M 2522 4750 
Q 3503 4750 4090 4092 
Q 4678 3434 4678 2328 
Q 4678 1225 4090 567 
Q 3503 -91 2522 -91 
Q 1538 -91 948 565 
Q 359 1222 359 2328 
Q 359 3434 948 4092 
Q 1538 4750 2522 4750 
z
" transform="scale(0.015625)"/>
     </defs>
     <use xlink:href="#DejaVuSans-4f"/>
     <use xlink:href="#DejaVuSans-74" x="78.710938"/>
     <use xlink:href="#DejaVuSans-68" x="117.919922"/>
     <use xlink:href="#DejaVuSans-65" x="181.298828"/>
     <use xlink:href="#DejaVuSans-72" x="242.822266"/>
    </g>
   </g>
   <g id="text_11">
    <!-- Medical -->
    <g style="fill: #262626" transform="translate(409.371301 541.30775) scale(0.1 -0.1)">
     <defs>
      <path id="DejaVuSans-4d" d="M 628 4666 
L 1569 4666 
L 2759 1491 
L 3956 4666 
L 4897 4666 
L 4897 0 
L 4281 0 
L 4281 4097 
L 3078 897 
L 2444 897 
L 1241 4097 
L 1241 0 
L 628 0 
L 628 4666 
z
" transform="scale(0.015625)"/>
      <path id="DejaVuSans-64" d="M 2906 2969 
L 2906 4863 
L 3481 4863 
L 3481 0 
L 2906 0 
L 2906 525 
Q 2725 213 2448 61 
Q 2172 -91 1784 -91 
Q 1150 -91 751 415 
Q 353 922 353 1747 
Q 353 2572 751 3078 
Q 1150 3584 1784 3584 
Q 2172 3584 2448 3432 
Q 2725 3281 2906 2969 
z
M 947 1747 
Q 947 1113 1208 752 
Q 1469 391 1925 391 
Q 2381 391 2643 752 
Q 2906 1113 2906 1747 
Q 2906 2381 2643 2742 
Q 2381 3103 1925 3103 
Q 1469 3103 1208 2742 
Q 947 2381 947 1747 
z
" transform="scale(0.015625)"/>
     </defs>
     <use xlink:href="#DejaVuSans-4d"/>
     <use xlink:href="#DejaVuSans-65" x="86.279297"/>
     <use xlink:href="#DejaVuSans-64" x="147.802734"/>
     <use xlink:href="#DejaVuSans-69" x="211.279297"/>
     <use xlink:href="#DejaVuSans-63" x="239.0625"/>
     <use xlink:href="#DejaVuSans-61" x="294.042969"/>
     <use xlink:href="#DejaVuSans-6c" x="355.322266"/>
    </g>
   </g>
   <g id="text_12">
    <!-- Marketing -->
    <g style="fill: #262626" transform="translate(539.513459 468.196126) scale(0.1 -0.1)">
     <defs>
      <path id="DejaVuSans-6b" d="M 581 4863 
L 1159 4863 
L 1159 1991 
L 2875 3500 
L 3609 3500 
L 1753 1863 
L 3688 0 
L 2938 0 
L 1159 1709 
L 1159 0 
L 581 0 
L 581 4863 
z
" transform="scale(0.015625)"/>
      <path id="DejaVuSans-67" d="M 2906 1791 
Q 2906 2416 2648 2759 
Q 2391 3103 1925 3103 
Q 1463 3103 1205 2759 
Q 947 2416 947 1791 
Q 947 1169 1205 825 
Q 1463 481 1925 481 
Q 2391 481 2648 825 
Q 2906 1169 2906 1791 
z
M 3481 434 
Q 3481 -459 3084 -895 
Q 2688 -1331 1869 -1331 
Q 1566 -1331 1297 -1286 
Q 1028 -1241 775 -1147 
L 775 -588 
Q 1028 -725 1275 -790 
Q 1522 -856 1778 -856 
Q 2344 -856 2625 -561 
Q 2906 -266 2906 331 
L 2906 616 
Q 2728 306 2450 153 
Q 2172 0 1784 0 
Q 1141 0 747 490 
Q 353 981 353 1791 
Q 353 2603 747 3093 
Q 1141 3584 1784 3584 
Q 2172 3584 2450 3431 
Q 2728 3278 2906 2969 
L 2906 3500 
L 3481 3500 
L 3481 434 
z
" transform="scale(0.015625)"/>
     </defs>
     <use xlink:href="#DejaVuSans-4d"/>
     <use xlink:href="#DejaVuSans-61" x="86.279297"/>
     <use xlink:href="#DejaVuSans-72" x="147.558594"/>
     <use xlink:href="#DejaVuSans-6b" x="188.671875"/>
     <use xlink:href="#DejaVuSans-65" x="242.957031"/>
     <use xlink:href="#DejaVuSans-74" x="304.480469"/>
     <use xlink:href="#DejaVuSans-69" x="343.689453"/>
     <use xlink:href="#DejaVuSans-6e" x="371.472656"/>
     <use xlink:href="#DejaVuSans-67" x="434.851562"/>
    </g>
   </g>
   <g id="text_13">
    <!-- Technical Degree -->
    <g style="fill: #262626" transform="translate(594.400459 372.183651) scale(0.1 -0.1)">
     <use xlink:href="#DejaVuSans-54"/>
     <use xlink:href="#DejaVuSans-65" x="44.083984"/>
     <use xlink:href="#DejaVuSans-63" x="105.607422"/>
     <use xlink:href="#DejaVuSans-68" x="160.587891"/>
     <use xlink:href="#DejaVuSans-6e" x="223.966797"/>
     <use xlink:href="#DejaVuSans-69" x="287.345703"/>
     <use xlink:href="#DejaVuSans-63" x="315.128906"/>
     <use xlink:href="#DejaVuSans-61" x="370.109375"/>
     <use xlink:href="#DejaVuSans-6c" x="431.388672"/>
     <use xlink:href="#DejaVuSans-20" x="459.171875"/>
     <use xlink:href="#DejaVuSans-44" x="490.958984"/>
     <use xlink:href="#DejaVuSans-65" x="567.960938"/>
     <use xlink:href="#DejaVuSans-67" x="629.484375"/>
     <use xlink:href="#DejaVuSans-72" x="692.960938"/>
     <use xlink:href="#DejaVuSans-65" x="731.824219"/>
     <use xlink:href="#DejaVuSans-65" x="793.347656"/>
    </g>
   </g>
   <g id="text_14">
    <!-- Human Resources -->
    <g style="fill: #262626" transform="translate(604.225733 316.345472) scale(0.1 -0.1)">
     <use xlink:href="#DejaVuSans-48"/>
     <use xlink:href="#DejaVuSans-75" x="75.195312"/>
     <use xlink:href="#DejaVuSans-6d" x="138.574219"/>
     <use xlink:href="#DejaVuSans-61" x="235.986328"/>
     <use xlink:href="#DejaVuSans-6e" x="297.265625"/>
     <use xlink:href="#DejaVuSans-20" x="360.644531"/>
     <use xlink:href="#DejaVuSans-52" x="392.431641"/>
     <use xlink:href="#DejaVuSans-65" x="457.414062"/>
     <use xlink:href="#DejaVuSans-73" x="518.9375"/>
     <use xlink:href="#DejaVuSans-6f" x="571.037109"/>
     <use xlink:href="#DejaVuSans-75" x="632.21875"/>
     <use xlink:href="#DejaVuSans-72" x="695.597656"/>
     <use xlink:href="#DejaVuSans-63" x="734.460938"/>
     <use xlink:href="#DejaVuSans-65" x="789.441406"/>
     <use xlink:href="#DejaVuSans-73" x="850.964844"/>
    </g>
   </g>
   <g id="text_15">
    <!-- Female -->
    <g style="fill: #262626" transform="translate(249.160651 70.280583) scale(0.1 -0.1)">
     <use xlink:href="#DejaVuSans-46"/>
     <use xlink:href="#DejaVuSans-65" x="52.019531"/>
     <use xlink:href="#DejaVuSans-6d" x="113.542969"/>
     <use xlink:href="#DejaVuSans-61" x="210.955078"/>
     <use xlink:href="#DejaVuSans-6c" x="272.234375"/>
     <use xlink:href="#DejaVuSans-65" x="300.017578"/>
    </g>
   </g>
   <g id="text_16">
    <!-- Male -->
    <g style="fill: #262626" transform="translate(436.076134 534.27441) scale(0.1 -0.1)">
     <use xlink:href="#DejaVuSans-4d"/>
     <use xlink:href="#DejaVuSans-61" x="86.279297"/>
     <use xlink:href="#DejaVuSans-6c" x="147.558594"/>
     <use xlink:href="#DejaVuSans-65" x="175.341797"/>
    </g>
   </g>
   <g id="text_17">
    <!-- Sales Executive -->
    <g style="fill: #262626" transform="translate(547.784754 145.74486) scale(0.1 -0.1)">
     <defs>
      <path id="DejaVuSans-45" d="M 628 4666 
L 3578 4666 
L 3578 4134 
L 1259 4134 
L 1259 2753 
L 3481 2753 
L 3481 2222 
L 1259 2222 
L 1259 531 
L 3634 531 
L 3634 0 
L 628 0 
L 628 4666 
z
" transform="scale(0.015625)"/>
      <path id="DejaVuSans-78" d="M 3513 3500 
L 2247 1797 
L 3578 0 
L 2900 0 
L 1881 1375 
L 863 0 
L 184 0 
L 1544 1831 
L 300 3500 
L 978 3500 
L 1906 2253 
L 2834 3500 
L 3513 3500 
z
" transform="scale(0.015625)"/>
     </defs>
     <use xlink:href="#DejaVuSans-53"/>
     <use xlink:href="#DejaVuSans-61" x="63.476562"/>
     <use xlink:href="#DejaVuSans-6c" x="124.755859"/>
     <use xlink:href="#DejaVuSans-65" x="152.539062"/>
     <use xlink:href="#DejaVuSans-73" x="214.0625"/>
     <use xlink:href="#DejaVuSans-20" x="266.162109"/>
     <use xlink:href="#DejaVuSans-45" x="297.949219"/>
     <use xlink:href="#DejaVuSans-78" x="361.132812"/>
     <use xlink:href="#DejaVuSans-65" x="417.1875"/>
     <use xlink:href="#DejaVuSans-63" x="478.710938"/>
     <use xlink:href="#DejaVuSans-75" x="533.691406"/>
     <use xlink:href="#DejaVuSans-74" x="597.070312"/>
     <use xlink:href="#DejaVuSans-69" x="636.279297"/>
     <use xlink:href="#DejaVuSans-76" x="664.0625"/>
     <use xlink:href="#DejaVuSans-65" x="723.242188"/>
    </g>
   </g>
   <g id="text_18">
    <!-- Research Scientist -->
    <g style="fill: #262626" transform="translate(163.339866 82.273065) scale(0.1 -0.1)">
     <use xlink:href="#DejaVuSans-52"/>
     <use xlink:href="#DejaVuSans-65" x="64.982422"/>
     <use xlink:href="#DejaVuSans-73" x="126.505859"/>
     <use xlink:href="#DejaVuSans-65" x="178.605469"/>
     <use xlink:href="#DejaVuSans-61" x="240.128906"/>
     <use xlink:href="#DejaVuSans-72" x="301.408203"/>
     <use xlink:href="#DejaVuSans-63" x="340.271484"/>
     <use xlink:href="#DejaVuSans-68" x="395.251953"/>
     <use xlink:href="#DejaVuSans-20" x="458.630859"/>
     <use xlink:href="#DejaVuSans-53" x="490.417969"/>
     <use xlink:href="#DejaVuSans-63" x="553.894531"/>
     <use xlink:href="#DejaVuSans-69" x="608.875"/>
     <use xlink:href="#DejaVuSans-65" x="636.658203"/>
     <use xlink:href="#DejaVuSans-6e" x="698.181641"/>
     <use xlink:href="#DejaVuSans-74" x="761.560547"/>
     <use xlink:href="#DejaVuSans-69" x="800.769531"/>
     <use xlink:href="#DejaVuSans-73" x="828.552734"/>
     <use xlink:href="#DejaVuSans-74" x="880.652344"/>
    </g>
   </g>
   <g id="text_19">
    <!-- Laboratory Technician -->
    <g style="fill: #262626" transform="translate(7.2 315.304419) scale(0.1 -0.1)">
     <defs>
      <path id="DejaVuSans-62" d="M 3116 1747 
Q 3116 2381 2855 2742 
Q 2594 3103 2138 3103 
Q 1681 3103 1420 2742 
Q 1159 2381 1159 1747 
Q 1159 1113 1420 752 
Q 1681 391 2138 391 
Q 2594 391 2855 752 
Q 3116 1113 3116 1747 
z
M 1159 2969 
Q 1341 3281 1617 3432 
Q 1894 3584 2278 3584 
Q 2916 3584 3314 3078 
Q 3713 2572 3713 1747 
Q 3713 922 3314 415 
Q 2916 -91 2278 -91 
Q 1894 -91 1617 61 
Q 1341 213 1159 525 
L 1159 0 
L 581 0 
L 581 4863 
L 1159 4863 
L 1159 2969 
z
" transform="scale(0.015625)"/>
     </defs>
     <use xlink:href="#DejaVuSans-4c"/>
     <use xlink:href="#DejaVuSans-61" x="55.712891"/>
     <use xlink:href="#DejaVuSans-62" x="116.992188"/>
     <use xlink:href="#DejaVuSans-6f" x="180.46875"/>
     <use xlink:href="#DejaVuSans-72" x="241.650391"/>
     <use xlink:href="#DejaVuSans-61" x="282.763672"/>
     <use xlink:href="#DejaVuSans-74" x="344.042969"/>
     <use xlink:href="#DejaVuSans-6f" x="383.251953"/>
     <use xlink:href="#DejaVuSans-72" x="444.433594"/>
     <use xlink:href="#DejaVuSans-79" x="485.546875"/>
     <use xlink:href="#DejaVuSans-20" x="544.726562"/>
     <use xlink:href="#DejaVuSans-54" x="576.513672"/>
     <use xlink:href="#DejaVuSans-65" x="620.597656"/>
     <use xlink:href="#DejaVuSans-63" x="682.121094"/>
     <use xlink:href="#DejaVuSans-68" x="737.101562"/>
     <use xlink:href="#DejaVuSans-6e" x="800.480469"/>
     <use xlink:href="#DejaVuSans-69" x="863.859375"/>
     <use xlink:href="#DejaVuSans-63" x="891.642578"/>
     <use xlink:href="#DejaVuSans-69" x="946.623047"/>
     <use xlink:href="#DejaVuSans-61" x="974.40625"/>
     <use xlink:href="#DejaVuSans-6e" x="1035.685547"/>
    </g>
   </g>
   <g id="text_20">
    <!-- Manufacturing Director -->
    <g style="fill: #262626" transform="translate(96.545633 495.884255) scale(0.1 -0.1)">
     <use xlink:href="#DejaVuSans-4d"/>
     <use xlink:href="#DejaVuSans-61" x="86.279297"/>
     <use xlink:href="#DejaVuSans-6e" x="147.558594"/>
     <use xlink:href="#DejaVuSans-75" x="210.9375"/>
     <use xlink:href="#DejaVuSans-66" x="274.316406"/>
     <use xlink:href="#DejaVuSans-61" x="309.521484"/>
     <use xlink:href="#DejaVuSans-63" x="370.800781"/>
     <use xlink:href="#DejaVuSans-74" x="425.78125"/>
     <use xlink:href="#DejaVuSans-75" x="464.990234"/>
     <use xlink:href="#DejaVuSans-72" x="528.369141"/>
     <use xlink:href="#DejaVuSans-69" x="569.482422"/>
     <use xlink:href="#DejaVuSans-6e" x="597.265625"/>
     <use xlink:href="#DejaVuSans-67" x="660.644531"/>
     <use xlink:href="#DejaVuSans-20" x="724.121094"/>
     <use xlink:href="#DejaVuSans-44" x="755.908203"/>
     <use xlink:href="#DejaVuSans-69" x="832.910156"/>
     <use xlink:href="#DejaVuSans-72" x="860.693359"/>
     <use xlink:href="#DejaVuSans-65" x="899.556641"/>
     <use xlink:href="#DejaVuSans-63" x="961.080078"/>
     <use xlink:href="#DejaVuSans-74" x="1016.060547"/>
     <use xlink:href="#DejaVuSans-6f" x="1055.269531"/>
     <use xlink:href="#DejaVuSans-72" x="1116.451172"/>
    </g>
   </g>
   <g id="text_21">
    <!-- Healthcare Representative -->
    <g style="fill: #262626" transform="translate(211.827637 545.712308) scale(0.1 -0.1)">
     <use xlink:href="#DejaVuSans-48"/>
     <use xlink:href="#DejaVuSans-65" x="75.195312"/>
     <use xlink:href="#DejaVuSans-61" x="136.71875"/>
     <use xlink:href="#DejaVuSans-6c" x="197.998047"/>
     <use xlink:href="#DejaVuSans-74" x="225.78125"/>
     <use xlink:href="#DejaVuSans-68" x="264.990234"/>
     <use xlink:href="#DejaVuSans-63" x="328.369141"/>
     <use xlink:href="#DejaVuSans-61" x="383.349609"/>
     <use xlink:href="#DejaVuSans-72" x="444.628906"/>
     <use xlink:href="#DejaVuSans-65" x="483.492188"/>
     <use xlink:href="#DejaVuSans-20" x="545.015625"/>
     <use xlink:href="#DejaVuSans-52" x="576.802734"/>
     <use xlink:href="#DejaVuSans-65" x="641.785156"/>
     <use xlink:href="#DejaVuSans-70" x="703.308594"/>
     <use xlink:href="#DejaVuSans-72" x="766.785156"/>
     <use xlink:href="#DejaVuSans-65" x="805.648438"/>
     <use xlink:href="#DejaVuSans-73" x="867.171875"/>
     <use xlink:href="#DejaVuSans-65" x="919.271484"/>
     <use xlink:href="#DejaVuSans-6e" x="980.794922"/>
     <use xlink:href="#DejaVuSans-74" x="1044.173828"/>
     <use xlink:href="#DejaVuSans-61" x="1083.382812"/>
     <use xlink:href="#DejaVuSans-74" x="1144.662109"/>
     <use xlink:href="#DejaVuSans-69" x="1183.871094"/>
     <use xlink:href="#DejaVuSans-76" x="1211.654297"/>
     <use xlink:href="#DejaVuSans-65" x="1270.833984"/>
    </g>
   </g>
   <g id="text_22">
    <!-- Manager -->
    <g style="fill: #262626" transform="translate(463.235996 523.614946) scale(0.1 -0.1)">
     <use xlink:href="#DejaVuSans-4d"/>
     <use xlink:href="#DejaVuSans-61" x="86.279297"/>
     <use xlink:href="#DejaVuSans-6e" x="147.558594"/>
     <use xlink:href="#DejaVuSans-61" x="210.9375"/>
     <use xlink:href="#DejaVuSans-67" x="272.216797"/>
     <use xlink:href="#DejaVuSans-65" x="335.693359"/>
     <use xlink:href="#DejaVuSans-72" x="397.216797"/>
    </g>
   </g>
   <g id="text_23">
    <!-- Sales Representative -->
    <g style="fill: #262626" transform="translate(540.573566 467.046231) scale(0.1 -0.1)">
     <use xlink:href="#DejaVuSans-53"/>
     <use xlink:href="#DejaVuSans-61" x="63.476562"/>
     <use xlink:href="#DejaVuSans-6c" x="124.755859"/>
     <use xlink:href="#DejaVuSans-65" x="152.539062"/>
     <use xlink:href="#DejaVuSans-73" x="214.0625"/>
     <use xlink:href="#DejaVuSans-20" x="266.162109"/>
     <use xlink:href="#DejaVuSans-52" x="297.949219"/>
     <use xlink:href="#DejaVuSans-65" x="362.931641"/>
     <use xlink:href="#DejaVuSans-70" x="424.455078"/>
     <use xlink:href="#DejaVuSans-72" x="487.931641"/>
     <use xlink:href="#DejaVuSans-65" x="526.794922"/>
     <use xlink:href="#DejaVuSans-73" x="588.318359"/>
     <use xlink:href="#DejaVuSans-65" x="640.417969"/>
     <use xlink:href="#DejaVuSans-6e" x="701.941406"/>
     <use xlink:href="#DejaVuSans-74" x="765.320312"/>
     <use xlink:href="#DejaVuSans-61" x="804.529297"/>
     <use xlink:href="#DejaVuSans-74" x="865.808594"/>
     <use xlink:href="#DejaVuSans-69" x="905.017578"/>
     <use xlink:href="#DejaVuSans-76" x="932.800781"/>
     <use xlink:href="#DejaVuSans-65" x="991.980469"/>
    </g>
   </g>
   <g id="text_24">
    <!-- Research Director -->
    <g style="fill: #262626" transform="translate(586.0133 395.748151) scale(0.1 -0.1)">
     <use xlink:href="#DejaVuSans-52"/>
     <use xlink:href="#DejaVuSans-65" x="64.982422"/>
     <use xlink:href="#DejaVuSans-73" x="126.505859"/>
     <use xlink:href="#DejaVuSans-65" x="178.605469"/>
     <use xlink:href="#DejaVuSans-61" x="240.128906"/>
     <use xlink:href="#DejaVuSans-72" x="301.408203"/>
     <use xlink:href="#DejaVuSans-63" x="340.271484"/>
     <use xlink:href="#DejaVuSans-68" x="395.251953"/>
     <use xlink:href="#DejaVuSans-20" x="458.630859"/>
     <use xlink:href="#DejaVuSans-44" x="490.417969"/>
     <use xlink:href="#DejaVuSans-69" x="567.419922"/>
     <use xlink:href="#DejaVuSans-72" x="595.203125"/>
     <use xlink:href="#DejaVuSans-65" x="634.066406"/>
     <use xlink:href="#DejaVuSans-63" x="695.589844"/>
     <use xlink:href="#DejaVuSans-74" x="750.570312"/>
     <use xlink:href="#DejaVuSans-6f" x="789.779297"/>
     <use xlink:href="#DejaVuSans-72" x="850.960938"/>
    </g>
   </g>
   <g id="text_25">
    <!-- Human Resources -->
    <g style="fill: #262626" transform="translate(603.126955 329.330616) scale(0.1 -0.1)">
     <use xlink:href="#DejaVuSans-48"/>
     <use xlink:href="#DejaVuSans-75" x="75.195312"/>
     <use xlink:href="#DejaVuSans-6d" x="138.574219"/>
     <use xlink:href="#DejaVuSans-61" x="235.986328"/>
     <use xlink:href="#DejaVuSans-6e" x="297.265625"/>
     <use xlink:href="#DejaVuSans-20" x="360.644531"/>
     <use xlink:href="#DejaVuSans-52" x="392.431641"/>
     <use xlink:href="#DejaVuSans-65" x="457.414062"/>
     <use xlink:href="#DejaVuSans-73" x="518.9375"/>
     <use xlink:href="#DejaVuSans-6f" x="571.037109"/>
     <use xlink:href="#DejaVuSans-75" x="632.21875"/>
     <use xlink:href="#DejaVuSans-72" x="695.597656"/>
     <use xlink:href="#DejaVuSans-63" x="734.460938"/>
     <use xlink:href="#DejaVuSans-65" x="789.441406"/>
     <use xlink:href="#DejaVuSans-73" x="850.964844"/>
    </g>
   </g>
   <g id="text_26">
    <!-- Single -->
    <g style="fill: #262626" transform="translate(392.923372 60.479752) scale(0.1 -0.1)">
     <use xlink:href="#DejaVuSans-53"/>
     <use xlink:href="#DejaVuSans-69" x="63.476562"/>
     <use xlink:href="#DejaVuSans-6e" x="91.259766"/>
     <use xlink:href="#DejaVuSans-67" x="154.638672"/>
     <use xlink:href="#DejaVuSans-6c" x="218.115234"/>
     <use xlink:href="#DejaVuSans-65" x="245.898438"/>
    </g>
   </g>
   <g id="text_27">
    <!-- Married -->
    <g style="fill: #262626" transform="translate(142.383361 466.661442) scale(0.1 -0.1)">
     <use xlink:href="#DejaVuSans-4d"/>
     <use xlink:href="#DejaVuSans-61" x="86.279297"/>
     <use xlink:href="#DejaVuSans-72" x="147.558594"/>
     <use xlink:href="#DejaVuSans-72" x="186.921875"/>
     <use xlink:href="#DejaVuSans-69" x="228.035156"/>
     <use xlink:href="#DejaVuSans-65" x="255.818359"/>
     <use xlink:href="#DejaVuSans-64" x="317.341797"/>
    </g>
   </g>
   <g id="text_28">
    <!-- Divorced -->
    <g style="fill: #262626" transform="translate(547.449798 459.209615) scale(0.1 -0.1)">
     <use xlink:href="#DejaVuSans-44"/>
     <use xlink:href="#DejaVuSans-69" x="77.001953"/>
     <use xlink:href="#DejaVuSans-76" x="104.785156"/>
     <use xlink:href="#DejaVuSans-6f" x="163.964844"/>
     <use xlink:href="#DejaVuSans-72" x="225.146484"/>
     <use xlink:href="#DejaVuSans-63" x="264.009766"/>
     <use xlink:href="#DejaVuSans-65" x="318.990234"/>
     <use xlink:href="#DejaVuSans-64" x="380.513672"/>
    </g>
   </g>
   <g id="text_29">
    <!-- Yes -->
    <g style="fill: #262626" transform="translate(190.834029 112.867771) scale(0.1 -0.1)">
     <use xlink:href="#DejaVuSans-59"/>
     <use xlink:href="#DejaVuSans-65" x="47.833984"/>
     <use xlink:href="#DejaVuSans-73" x="109.357422"/>
    </g>
   </g>
   <g id="text_30">
    <!-- No -->
    <g style="fill: #262626" transform="translate(514.41211 491.687229) scale(0.1 -0.1)">
     <use xlink:href="#DejaVuSans-4e"/>
     <use xlink:href="#DejaVuSans-6f" x="74.804688"/>
    </g>
   </g>
   <g id="text_31">
    <!-- OverTime -->
    <g style="fill: #262626" transform="translate(331.582601 16.318125) scale(0.12 -0.12)">
     <use xlink:href="#DejaVuSans-4f"/>
     <use xlink:href="#DejaVuSans-76" x="78.710938"/>
     <use xlink:href="#DejaVuSans-65" x="137.890625"/>
     <use xlink:href="#DejaVuSans-72" x="199.414062"/>
     <use xlink:href="#DejaVuSans-54" x="240.527344"/>
     <use xlink:href="#DejaVuSans-69" x="298.486328"/>
     <use xlink:href="#DejaVuSans-6d" x="326.269531"/>
     <use xlink:href="#DejaVuSans-65" x="423.681641"/>
    </g>
   </g>
  </g>
 </g>
</svg>
