<?xml version="1.0" encoding="utf-8" standalone="no"?>
<!DOCTYPE svg PUBLIC "-//W3C//DTD SVG 1.1//EN"
  "http://www.w3.org/Graphics/SVG/1.1/DTD/svg11.dtd">
<svg xmlns:xlink="http://www.w3.org/1999/xlink" width="411.285625pt" height="310.86825pt" viewBox="0 0 411.285625 310.86825" xmlns="http://www.w3.org/2000/svg" version="1.1">
 <metadata>
  <rdf:RDF xmlns:dc="http://purl.org/dc/elements/1.1/" xmlns:cc="http://creativecommons.org/ns#" xmlns:rdf="http://www.w3.org/1999/02/22-rdf-syntax-ns#">
   <cc:Work>
    <dc:type rdf:resource="http://purl.org/dc/dcmitype/StillImage"/>
    <dc:date>1980-01-01T00:00:00+00:00</dc:date>
    <dc:format>image/svg+xml</dc:format>
    <dc:creator>
     <cc:Agent>
      <dc:title>Matplotlib v3.8.2, https://matplotlib.org/</dc:title>
     </cc:Agent>
    </dc:creator>
   </cc:Work>
  </rdf:RDF>
 </metadata>
 <defs>
  <style type="text/css">*{stroke-linejoin: round; stroke-linecap: butt}</style>
 </defs>
 <g id="figure_1">
  <g id="patch_1">
   <path d="M 0 310.86825 
L 411.285625 310.86825 
L 411.285625 0 
L 0 0 
L 0 310.86825 
z
" style="fill: none"/>
  </g>
  <g id="axes_1">
   <g id="patch_2">
    <path d="M 46.965625 273.312 
L 404.085625 273.312 
L 404.085625 7.2 
L 46.965625 7.2 
L 46.965625 273.312 
z
" style="fill: none"/>
   </g>
   <g id="patch_3">
    <path d="M 63.198352 273.312 
L 225.525625 273.312 
L 225.525625 269.923452 
L 63.198352 269.923452 
z
" clip-path="url(#p33ddb9614c)" style="fill: #bcbd22; fill-opacity: 0.5; stroke: #000000; stroke-linejoin: miter"/>
   </g>
   <g id="patch_4">
    <path d="M 225.525625 273.312 
L 387.852898 273.312 
L 387.852898 262.01684 
L 225.525625 262.01684 
z
" clip-path="url(#p33ddb9614c)" style="fill: #bcbd22; fill-opacity: 0.5; stroke: #000000; stroke-linejoin: miter"/>
   </g>
   <g id="patch_5">
    <path d="M 63.198352 273.312 
L 225.525625 273.312 
L 225.525625 272.747242 
L 63.198352 272.747242 
z
" clip-path="url(#p33ddb9614c)" style="fill: #7f7f7f; fill-opacity: 0.5; stroke: #000000; stroke-linejoin: miter"/>
   </g>
   <g id="patch_6">
    <path d="M 225.525625 273.312 
L 387.852898 273.312 
L 387.852898 251.286439 
L 225.525625 251.286439 
z
" clip-path="url(#p33ddb9614c)" style="fill: #7f7f7f; fill-opacity: 0.5; stroke: #000000; stroke-linejoin: miter"/>
   </g>
   <g id="patch_7">
    <path d="M 63.198352 273.312 
L 225.525625 273.312 
L 225.525625 263.993493 
L 63.198352 263.993493 
z
" clip-path="url(#p33ddb9614c)" style="fill: #e377c2; fill-opacity: 0.5; stroke: #000000; stroke-linejoin: miter"/>
   </g>
   <g id="patch_8">
    <path d="M 225.525625 273.312 
L 387.852898 273.312 
L 387.852898 259.19305 
L 225.525625 259.19305 
z
" clip-path="url(#p33ddb9614c)" style="fill: #e377c2; fill-opacity: 0.5; stroke: #000000; stroke-linejoin: miter"/>
   </g>
   <g id="patch_9">
    <path d="M 63.198352 273.312 
L 225.525625 273.312 
L 225.525625 271.900105 
L 63.198352 271.900105 
z
" clip-path="url(#p33ddb9614c)" style="fill: #8c564b; fill-opacity: 0.5; stroke: #000000; stroke-linejoin: miter"/>
   </g>
   <g id="patch_10">
    <path d="M 225.525625 273.312 
L 387.852898 273.312 
L 387.852898 245.921238 
L 225.525625 245.921238 
z
" clip-path="url(#p33ddb9614c)" style="fill: #8c564b; fill-opacity: 0.5; stroke: #000000; stroke-linejoin: miter"/>
   </g>
   <g id="patch_11">
    <path d="M 63.198352 273.312 
L 225.525625 273.312 
L 225.525625 270.770589 
L 63.198352 270.770589 
z
" clip-path="url(#p33ddb9614c)" style="fill: #9467bd; fill-opacity: 0.5; stroke: #000000; stroke-linejoin: miter"/>
   </g>
   <g id="patch_12">
    <path d="M 225.525625 273.312 
L 387.852898 273.312 
L 387.852898 238.861763 
L 225.525625 238.861763 
z
" clip-path="url(#p33ddb9614c)" style="fill: #9467bd; fill-opacity: 0.5; stroke: #000000; stroke-linejoin: miter"/>
   </g>
   <g id="patch_13">
    <path d="M 63.198352 273.312 
L 225.525625 273.312 
L 225.525625 270.48821 
L 63.198352 270.48821 
z
" clip-path="url(#p33ddb9614c)" style="fill: #d62728; fill-opacity: 0.5; stroke: #000000; stroke-linejoin: miter"/>
   </g>
   <g id="patch_14">
    <path d="M 225.525625 273.312 
L 387.852898 273.312 
L 387.852898 235.190836 
L 225.525625 235.190836 
z
" clip-path="url(#p33ddb9614c)" style="fill: #d62728; fill-opacity: 0.5; stroke: #000000; stroke-linejoin: miter"/>
   </g>
   <g id="patch_15">
    <path d="M 63.198352 273.312 
L 225.525625 273.312 
L 225.525625 255.804503 
L 63.198352 255.804503 
z
" clip-path="url(#p33ddb9614c)" style="fill: #2ca02c; fill-opacity: 0.5; stroke: #000000; stroke-linejoin: miter"/>
   </g>
   <g id="patch_16">
    <path d="M 225.525625 273.312 
L 387.852898 273.312 
L 387.852898 217.683339 
L 225.525625 217.683339 
z
" clip-path="url(#p33ddb9614c)" style="fill: #2ca02c; fill-opacity: 0.5; stroke: #000000; stroke-linejoin: miter"/>
   </g>
   <g id="patch_17">
    <path d="M 63.198352 273.312 
L 225.525625 273.312 
L 225.525625 260.040187 
L 63.198352 260.040187 
z
" clip-path="url(#p33ddb9614c)" style="fill: #ff7f0e; fill-opacity: 0.5; stroke: #000000; stroke-linejoin: miter"/>
   </g>
   <g id="patch_18">
    <path d="M 225.525625 273.312 
L 387.852898 273.312 
L 387.852898 204.129147 
L 225.525625 204.129147 
z
" clip-path="url(#p33ddb9614c)" style="fill: #ff7f0e; fill-opacity: 0.5; stroke: #000000; stroke-linejoin: miter"/>
   </g>
   <g id="patch_19">
    <path d="M 63.198352 273.312 
L 225.525625 273.312 
L 225.525625 257.216398 
L 63.198352 257.216398 
z
" clip-path="url(#p33ddb9614c)" style="fill: #1f77b4; fill-opacity: 0.5; stroke: #000000; stroke-linejoin: miter"/>
   </g>
   <g id="patch_20">
    <path d="M 225.525625 273.312 
L 387.852898 273.312 
L 387.852898 197.352052 
L 225.525625 197.352052 
z
" clip-path="url(#p33ddb9614c)" style="fill: #1f77b4; fill-opacity: 0.5; stroke: #000000; stroke-linejoin: miter"/>
   </g>
   <g id="matplotlib.axis_1">
    <g id="xtick_1">
     <g id="line2d_1">
      <defs>
       <path id="m0395759520" d="M 0 0 
L 0 3.5 
" style="stroke: #000000; stroke-width: 0.8"/>
      </defs>
      <g>
       <use xlink:href="#m0395759520" x="144.361989" y="273.312" style="stroke: #000000; stroke-width: 0.8"/>
      </g>
     </g>
     <g id="text_1">
      <!-- Yes -->
      <g transform="translate(136.289332 287.910437) scale(0.1 -0.1)">
       <defs>
        <path id="DejaVuSans-59" d="M -13 4666 
L 666 4666 
L 1959 2747 
L 3244 4666 
L 3922 4666 
L 2272 2222 
L 2272 0 
L 1638 0 
L 1638 2222 
L -13 4666 
z
" transform="scale(0.015625)"/>
        <path id="DejaVuSans-65" d="M 3597 1894 
L 3597 1613 
L 953 1613 
Q 991 1019 1311 708 
Q 1631 397 2203 397 
Q 2534 397 2845 478 
Q 3156 559 3463 722 
L 3463 178 
Q 3153 47 2828 -22 
Q 2503 -91 2169 -91 
Q 1331 -91 842 396 
Q 353 884 353 1716 
Q 353 2575 817 3079 
Q 1281 3584 2069 3584 
Q 2775 3584 3186 3129 
Q 3597 2675 3597 1894 
z
M 3022 2063 
Q 3016 2534 2758 2815 
Q 2500 3097 2075 3097 
Q 1594 3097 1305 2825 
Q 1016 2553 972 2059 
L 3022 2063 
z
" transform="scale(0.015625)"/>
        <path id="DejaVuSans-73" d="M 2834 3397 
L 2834 2853 
Q 2591 2978 2328 3040 
Q 2066 3103 1784 3103 
Q 1356 3103 1142 2972 
Q 928 2841 928 2578 
Q 928 2378 1081 2264 
Q 1234 2150 1697 2047 
L 1894 2003 
Q 2506 1872 2764 1633 
Q 3022 1394 3022 966 
Q 3022 478 2636 193 
Q 2250 -91 1575 -91 
Q 1294 -91 989 -36 
Q 684 19 347 128 
L 347 722 
Q 666 556 975 473 
Q 1284 391 1588 391 
Q 1994 391 2212 530 
Q 2431 669 2431 922 
Q 2431 1156 2273 1281 
Q 2116 1406 1581 1522 
L 1381 1569 
Q 847 1681 609 1914 
Q 372 2147 372 2553 
Q 372 3047 722 3315 
Q 1072 3584 1716 3584 
Q 2034 3584 2315 3537 
Q 2597 3491 2834 3397 
z
" transform="scale(0.015625)"/>
       </defs>
       <use xlink:href="#DejaVuSans-59"/>
       <use xlink:href="#DejaVuSans-65" x="47.833984"/>
       <use xlink:href="#DejaVuSans-73" x="109.357422"/>
      </g>
     </g>
    </g>
    <g id="xtick_2">
     <g id="line2d_2">
      <g>
       <use xlink:href="#m0395759520" x="306.689261" y="273.312" style="stroke: #000000; stroke-width: 0.8"/>
      </g>
     </g>
     <g id="text_2">
      <!-- No -->
      <g transform="translate(299.889261 287.910437) scale(0.1 -0.1)">
       <defs>
        <path id="DejaVuSans-4e" d="M 628 4666 
L 1478 4666 
L 3547 763 
L 3547 4666 
L 4159 4666 
L 4159 0 
L 3309 0 
L 1241 3903 
L 1241 0 
L 628 0 
L 628 4666 
z
" transform="scale(0.015625)"/>
        <path id="DejaVuSans-6f" d="M 1959 3097 
Q 1497 3097 1228 2736 
Q 959 2375 959 1747 
Q 959 1119 1226 758 
Q 1494 397 1959 397 
Q 2419 397 2687 759 
Q 2956 1122 2956 1747 
Q 2956 2369 2687 2733 
Q 2419 3097 1959 3097 
z
M 1959 3584 
Q 2709 3584 3137 3096 
Q 3566 2609 3566 1747 
Q 3566 888 3137 398 
Q 2709 -91 1959 -91 
Q 1206 -91 779 398 
Q 353 888 353 1747 
Q 353 2609 779 3096 
Q 1206 3584 1959 3584 
z
" transform="scale(0.015625)"/>
       </defs>
       <use xlink:href="#DejaVuSans-4e"/>
       <use xlink:href="#DejaVuSans-6f" x="74.804688"/>
      </g>
     </g>
    </g>
    <g id="text_3">
     <!-- Attrition -->
     <g transform="translate(205.250625 301.588562) scale(0.1 -0.1)">
      <defs>
       <path id="DejaVuSans-41" d="M 2188 4044 
L 1331 1722 
L 3047 1722 
L 2188 4044 
z
M 1831 4666 
L 2547 4666 
L 4325 0 
L 3669 0 
L 3244 1197 
L 1141 1197 
L 716 0 
L 50 0 
L 1831 4666 
z
" transform="scale(0.015625)"/>
       <path id="DejaVuSans-74" d="M 1172 4494 
L 1172 3500 
L 2356 3500 
L 2356 3053 
L 1172 3053 
L 1172 1153 
Q 1172 725 1289 603 
Q 1406 481 1766 481 
L 2356 481 
L 2356 0 
L 1766 0 
Q 1100 0 847 248 
Q 594 497 594 1153 
L 594 3053 
L 172 3053 
L 172 3500 
L 594 3500 
L 594 4494 
L 1172 4494 
z
" transform="scale(0.015625)"/>
       <path id="DejaVuSans-72" d="M 2631 2963 
Q 2534 3019 2420 3045 
Q 2306 3072 2169 3072 
Q 1681 3072 1420 2755 
Q 1159 2438 1159 1844 
L 1159 0 
L 581 0 
L 581 3500 
L 1159 3500 
L 1159 2956 
Q 1341 3275 1631 3429 
Q 1922 3584 2338 3584 
Q 2397 3584 2469 3576 
Q 2541 3569 2628 3553 
L 2631 2963 
z
" transform="scale(0.015625)"/>
       <path id="DejaVuSans-69" d="M 603 3500 
L 1178 3500 
L 1178 0 
L 603 0 
L 603 3500 
z
M 603 4863 
L 1178 4863 
L 1178 4134 
L 603 4134 
L 603 4863 
z
" transform="scale(0.015625)"/>
       <path id="DejaVuSans-6e" d="M 3513 2113 
L 3513 0 
L 2938 0 
L 2938 2094 
Q 2938 2591 2744 2837 
Q 2550 3084 2163 3084 
Q 1697 3084 1428 2787 
Q 1159 2491 1159 1978 
L 1159 0 
L 581 0 
L 581 3500 
L 1159 3500 
L 1159 2956 
Q 1366 3272 1645 3428 
Q 1925 3584 2291 3584 
Q 2894 3584 3203 3211 
Q 3513 2838 3513 2113 
z
" transform="scale(0.015625)"/>
      </defs>
      <use xlink:href="#DejaVuSans-41"/>
      <use xlink:href="#DejaVuSans-74" x="66.658203"/>
      <use xlink:href="#DejaVuSans-74" x="105.867188"/>
      <use xlink:href="#DejaVuSans-72" x="145.076172"/>
      <use xlink:href="#DejaVuSans-69" x="186.189453"/>
      <use xlink:href="#DejaVuSans-74" x="213.972656"/>
      <use xlink:href="#DejaVuSans-69" x="253.181641"/>
      <use xlink:href="#DejaVuSans-6f" x="280.964844"/>
      <use xlink:href="#DejaVuSans-6e" x="342.146484"/>
     </g>
    </g>
   </g>
   <g id="matplotlib.axis_2">
    <g id="ytick_1">
     <g id="line2d_3">
      <defs>
       <path id="mc2449a6f3d" d="M 0 0 
L -3.5 0 
" style="stroke: #000000; stroke-width: 0.8"/>
      </defs>
      <g>
       <use xlink:href="#mc2449a6f3d" x="46.965625" y="273.312" style="stroke: #000000; stroke-width: 0.8"/>
      </g>
     </g>
     <g id="text_4">
      <!-- 0 -->
      <g transform="translate(33.603125 277.111219) scale(0.1 -0.1)">
       <defs>
        <path id="DejaVuSans-30" d="M 2034 4250 
Q 1547 4250 1301 3770 
Q 1056 3291 1056 2328 
Q 1056 1369 1301 889 
Q 1547 409 2034 409 
Q 2525 409 2770 889 
Q 3016 1369 3016 2328 
Q 3016 3291 2770 3770 
Q 2525 4250 2034 4250 
z
M 2034 4750 
Q 2819 4750 3233 4129 
Q 3647 3509 3647 2328 
Q 3647 1150 3233 529 
Q 2819 -91 2034 -91 
Q 1250 -91 836 529 
Q 422 1150 422 2328 
Q 422 3509 836 4129 
Q 1250 4750 2034 4750 
z
" transform="scale(0.015625)"/>
       </defs>
       <use xlink:href="#DejaVuSans-30"/>
      </g>
     </g>
    </g>
    <g id="ytick_2">
     <g id="line2d_4">
      <g>
       <use xlink:href="#mc2449a6f3d" x="46.965625" y="216.836202" style="stroke: #000000; stroke-width: 0.8"/>
      </g>
     </g>
     <g id="text_5">
      <!-- 200 -->
      <g transform="translate(20.878125 220.635421) scale(0.1 -0.1)">
       <defs>
        <path id="DejaVuSans-32" d="M 1228 531 
L 3431 531 
L 3431 0 
L 469 0 
L 469 531 
Q 828 903 1448 1529 
Q 2069 2156 2228 2338 
Q 2531 2678 2651 2914 
Q 2772 3150 2772 3378 
Q 2772 3750 2511 3984 
Q 2250 4219 1831 4219 
Q 1534 4219 1204 4116 
Q 875 4013 500 3803 
L 500 4441 
Q 881 4594 1212 4672 
Q 1544 4750 1819 4750 
Q 2544 4750 2975 4387 
Q 3406 4025 3406 3419 
Q 3406 3131 3298 2873 
Q 3191 2616 2906 2266 
Q 2828 2175 2409 1742 
Q 1991 1309 1228 531 
z
" transform="scale(0.015625)"/>
       </defs>
       <use xlink:href="#DejaVuSans-32"/>
       <use xlink:href="#DejaVuSans-30" x="63.623047"/>
       <use xlink:href="#DejaVuSans-30" x="127.246094"/>
      </g>
     </g>
    </g>
    <g id="ytick_3">
     <g id="line2d_5">
      <g>
       <use xlink:href="#mc2449a6f3d" x="46.965625" y="160.360404" style="stroke: #000000; stroke-width: 0.8"/>
      </g>
     </g>
     <g id="text_6">
      <!-- 400 -->
      <g transform="translate(20.878125 164.159623) scale(0.1 -0.1)">
       <defs>
        <path id="DejaVuSans-34" d="M 2419 4116 
L 825 1625 
L 2419 1625 
L 2419 4116 
z
M 2253 4666 
L 3047 4666 
L 3047 1625 
L 3713 1625 
L 3713 1100 
L 3047 1100 
L 3047 0 
L 2419 0 
L 2419 1100 
L 313 1100 
L 313 1709 
L 2253 4666 
z
" transform="scale(0.015625)"/>
       </defs>
       <use xlink:href="#DejaVuSans-34"/>
       <use xlink:href="#DejaVuSans-30" x="63.623047"/>
       <use xlink:href="#DejaVuSans-30" x="127.246094"/>
      </g>
     </g>
    </g>
    <g id="ytick_4">
     <g id="line2d_6">
      <g>
       <use xlink:href="#mc2449a6f3d" x="46.965625" y="103.884606" style="stroke: #000000; stroke-width: 0.8"/>
      </g>
     </g>
     <g id="text_7">
      <!-- 600 -->
      <g transform="translate(20.878125 107.683824) scale(0.1 -0.1)">
       <defs>
        <path id="DejaVuSans-36" d="M 2113 2584 
Q 1688 2584 1439 2293 
Q 1191 2003 1191 1497 
Q 1191 994 1439 701 
Q 1688 409 2113 409 
Q 2538 409 2786 701 
Q 3034 994 3034 1497 
Q 3034 2003 2786 2293 
Q 2538 2584 2113 2584 
z
M 3366 4563 
L 3366 3988 
Q 3128 4100 2886 4159 
Q 2644 4219 2406 4219 
Q 1781 4219 1451 3797 
Q 1122 3375 1075 2522 
Q 1259 2794 1537 2939 
Q 1816 3084 2150 3084 
Q 2853 3084 3261 2657 
Q 3669 2231 3669 1497 
Q 3669 778 3244 343 
Q 2819 -91 2113 -91 
Q 1303 -91 875 529 
Q 447 1150 447 2328 
Q 447 3434 972 4092 
Q 1497 4750 2381 4750 
Q 2619 4750 2861 4703 
Q 3103 4656 3366 4563 
z
" transform="scale(0.015625)"/>
       </defs>
       <use xlink:href="#DejaVuSans-36"/>
       <use xlink:href="#DejaVuSans-30" x="63.623047"/>
       <use xlink:href="#DejaVuSans-30" x="127.246094"/>
      </g>
     </g>
    </g>
    <g id="ytick_5">
     <g id="line2d_7">
      <g>
       <use xlink:href="#mc2449a6f3d" x="46.965625" y="47.408808" style="stroke: #000000; stroke-width: 0.8"/>
      </g>
     </g>
     <g id="text_8">
      <!-- 800 -->
      <g transform="translate(20.878125 51.208026) scale(0.1 -0.1)">
       <defs>
        <path id="DejaVuSans-38" d="M 2034 2216 
Q 1584 2216 1326 1975 
Q 1069 1734 1069 1313 
Q 1069 891 1326 650 
Q 1584 409 2034 409 
Q 2484 409 2743 651 
Q 3003 894 3003 1313 
Q 3003 1734 2745 1975 
Q 2488 2216 2034 2216 
z
M 1403 2484 
Q 997 2584 770 2862 
Q 544 3141 544 3541 
Q 544 4100 942 4425 
Q 1341 4750 2034 4750 
Q 2731 4750 3128 4425 
Q 3525 4100 3525 3541 
Q 3525 3141 3298 2862 
Q 3072 2584 2669 2484 
Q 3125 2378 3379 2068 
Q 3634 1759 3634 1313 
Q 3634 634 3220 271 
Q 2806 -91 2034 -91 
Q 1263 -91 848 271 
Q 434 634 434 1313 
Q 434 1759 690 2068 
Q 947 2378 1403 2484 
z
M 1172 3481 
Q 1172 3119 1398 2916 
Q 1625 2713 2034 2713 
Q 2441 2713 2670 2916 
Q 2900 3119 2900 3481 
Q 2900 3844 2670 4047 
Q 2441 4250 2034 4250 
Q 1625 4250 1398 4047 
Q 1172 3844 1172 3481 
z
" transform="scale(0.015625)"/>
       </defs>
       <use xlink:href="#DejaVuSans-38"/>
       <use xlink:href="#DejaVuSans-30" x="63.623047"/>
       <use xlink:href="#DejaVuSans-30" x="127.246094"/>
      </g>
     </g>
    </g>
    <g id="text_9">
     <!-- Count -->
     <g transform="translate(14.798438 155.104437) rotate(-90) scale(0.1 -0.1)">
      <defs>
       <path id="DejaVuSans-43" d="M 4122 4306 
L 4122 3641 
Q 3803 3938 3442 4084 
Q 3081 4231 2675 4231 
Q 1875 4231 1450 3742 
Q 1025 3253 1025 2328 
Q 1025 1406 1450 917 
Q 1875 428 2675 428 
Q 3081 428 3442 575 
Q 3803 722 4122 1019 
L 4122 359 
Q 3791 134 3420 21 
Q 3050 -91 2638 -91 
Q 1578 -91 968 557 
Q 359 1206 359 2328 
Q 359 3453 968 4101 
Q 1578 4750 2638 4750 
Q 3056 4750 3426 4639 
Q 3797 4528 4122 4306 
z
" transform="scale(0.015625)"/>
       <path id="DejaVuSans-75" d="M 544 1381 
L 544 3500 
L 1119 3500 
L 1119 1403 
Q 1119 906 1312 657 
Q 1506 409 1894 409 
Q 2359 409 2629 706 
Q 2900 1003 2900 1516 
L 2900 3500 
L 3475 3500 
L 3475 0 
L 2900 0 
L 2900 538 
Q 2691 219 2414 64 
Q 2138 -91 1772 -91 
Q 1169 -91 856 284 
Q 544 659 544 1381 
z
M 1991 3584 
L 1991 3584 
z
" transform="scale(0.015625)"/>
      </defs>
      <use xlink:href="#DejaVuSans-43"/>
      <use xlink:href="#DejaVuSans-6f" x="69.824219"/>
      <use xlink:href="#DejaVuSans-75" x="131.005859"/>
      <use xlink:href="#DejaVuSans-6e" x="194.384766"/>
      <use xlink:href="#DejaVuSans-74" x="257.763672"/>
     </g>
    </g>
   </g>
   <g id="line2d_8">
    <path d="M 144.361989 266.308862 
L 150.071993 266.424124 
L 155.781998 266.758672 
L 162.307717 267.367597 
L 171.280582 268.467816 
L 190.042025 270.869203 
L 198.199175 271.653211 
L 205.540609 272.143317 
L 212.882043 272.406617 
L 219.407763 272.431767 
L 225.933482 272.232459 
L 231.643487 271.84103 
L 237.353492 271.208159 
L 242.247781 270.441932 
L 247.142071 269.442923 
L 252.03636 268.192774 
L 256.93065 266.684941 
L 261.82494 264.930131 
L 267.534944 262.615435 
L 275.692094 258.99979 
L 283.849243 255.413922 
L 288.743533 253.499062 
L 292.822107 252.145809 
L 296.084967 251.267473 
L 299.347827 250.600273 
L 302.610687 250.165214 
L 305.873546 249.97622 
L 306.689261 249.968313 
L 306.689261 249.968313 
" clip-path="url(#p33ddb9614c)" style="fill: none; stroke: #bcbd22; stroke-width: 1.5; stroke-linecap: square"/>
   </g>
   <g id="line2d_9">
    <path d="M 144.361989 269.86702 
L 146.809133 269.957336 
L 150.071993 270.330943 
L 154.150568 271.059922 
L 160.676287 272.254208 
L 164.754862 272.76755 
L 168.833437 273.070222 
L 174.543441 273.251442 
L 185.96345 273.310405 
L 265.0878 273.24979 
L 269.166374 273.051618 
L 271.613519 272.739342 
L 273.244949 272.371701 
L 274.876379 271.804073 
L 276.507809 270.950221 
L 278.139239 269.699212 
L 279.770668 267.914534 
L 280.586383 266.772904 
L 281.402098 265.436437 
L 282.217813 263.882655 
L 283.849243 260.032258 
L 285.480673 255.046061 
L 287.112103 248.774029 
L 288.743533 241.117658 
L 290.374963 232.058126 
L 292.006392 221.682945 
L 294.453537 204.159346 
L 299.347827 167.529942 
L 300.979257 157.050764 
L 302.610687 148.51558 
L 303.426402 145.15574 
L 304.242117 142.480118 
L 305.057831 140.534826 
L 305.873546 139.353795 
L 306.689261 138.957788 
L 306.689261 138.957788 
" clip-path="url(#p33ddb9614c)" style="fill: none; stroke: #7f7f7f; stroke-width: 1.5; stroke-linecap: square"/>
   </g>
   <g id="line2d_10">
    <path d="M 144.361989 255.040267 
L 148.440563 255.17893 
L 152.519138 255.588785 
L 156.597713 256.251356 
L 160.676287 257.137381 
L 165.570577 258.441682 
L 171.280582 260.198113 
L 191.673455 266.698573 
L 197.38346 268.159682 
L 202.277749 269.198114 
L 207.172039 270.021282 
L 212.066329 270.620204 
L 216.960618 270.989659 
L 221.854908 271.124823 
L 226.749197 271.018776 
L 231.643487 270.661282 
L 235.722062 270.161798 
L 239.800636 269.470173 
L 243.879211 268.578835 
L 247.957786 267.482744 
L 252.03636 266.181401 
L 256.93065 264.358062 
L 261.82494 262.275576 
L 267.534944 259.584405 
L 286.296388 250.430846 
L 290.374963 248.806351 
L 293.637822 247.706488 
L 296.900682 246.816953 
L 300.163542 246.162685 
L 303.426402 245.762397 
L 306.689261 245.62769 
L 306.689261 245.62769 
" clip-path="url(#p33ddb9614c)" style="fill: none; stroke: #e377c2; stroke-width: 1.5; stroke-linecap: square"/>
   </g>
   <g id="line2d_11">
    <path d="M 144.361989 266.765301 
L 146.809133 266.865029 
L 149.256278 267.155192 
L 152.519138 267.791887 
L 156.597713 268.851793 
L 164.754862 271.057462 
L 168.833437 271.901565 
L 172.912011 272.501765 
L 176.990586 272.884602 
L 182.700591 273.160742 
L 190.85774 273.286335 
L 214.513473 273.311978 
L 253.66779 273.217772 
L 258.56208 272.976807 
L 261.82494 272.582418 
L 264.272085 272.0506 
L 265.903514 271.525658 
L 267.534944 270.816542 
L 269.166374 269.873174 
L 270.797804 268.637404 
L 272.429234 267.043668 
L 274.060664 265.020483 
L 275.692094 262.492927 
L 277.323524 259.386201 
L 278.954953 255.63029 
L 280.586383 251.165635 
L 282.217813 245.949569 
L 283.849243 239.963142 
L 285.480673 233.217824 
L 287.927818 221.792619 
L 290.374963 209.113247 
L 296.900682 173.964485 
L 298.532112 166.221798 
L 300.163542 159.440114 
L 301.794972 153.869924 
L 302.610687 151.607812 
L 303.426402 149.725163 
L 304.242117 148.240769 
L 305.057831 147.169584 
L 305.873546 146.522475 
L 306.689261 146.306035 
L 306.689261 146.306035 
" clip-path="url(#p33ddb9614c)" style="fill: none; stroke: #8c564b; stroke-width: 1.5; stroke-linecap: square"/>
   </g>
   <g id="line2d_12">
    <path d="M 144.361989 262.725671 
L 146.809133 262.856014 
L 149.256278 263.23749 
L 151.703423 263.842608 
L 154.966283 264.922924 
L 159.860572 266.8713 
L 165.570577 269.137347 
L 169.649152 270.492044 
L 172.912011 271.351268 
L 176.174871 272.00744 
L 180.253446 272.575166 
L 184.332021 272.923506 
L 190.042025 273.17075 
L 199.01489 273.290065 
L 227.564912 273.311653 
L 247.142071 273.21844 
L 252.03636 273.014657 
L 255.29922 272.703693 
L 257.746365 272.301077 
L 260.19351 271.673102 
L 261.82494 271.081187 
L 263.45637 270.308747 
L 265.0878 269.313123 
L 266.719229 268.045748 
L 268.350659 266.452654 
L 269.982089 264.475481 
L 271.613519 262.053068 
L 273.244949 259.123691 
L 274.876379 255.627959 
L 276.507809 251.512334 
L 278.139239 246.733184 
L 279.770668 241.261199 
L 281.402098 235.085935 
L 283.033528 228.220181 
L 285.480673 216.722257 
L 287.927818 204.03055 
L 296.900682 155.611882 
L 298.532112 148.262808 
L 300.163542 141.90989 
L 301.794972 136.746423 
L 302.610687 134.662841 
L 303.426402 132.934468 
L 304.242117 131.575296 
L 305.057831 130.596409 
L 305.873546 130.005835 
L 306.689261 129.808435 
L 306.689261 129.808435 
" clip-path="url(#p33ddb9614c)" style="fill: none; stroke: #9467bd; stroke-width: 1.5; stroke-linecap: square"/>
   </g>
   <g id="line2d_13">
    <path d="M 144.361989 261.324892 
L 146.809133 261.478133 
L 149.256278 261.9262 
L 151.703423 262.635598 
L 154.966283 263.897669 
L 159.860572 266.15741 
L 165.570577 268.751478 
L 168.833437 270.001127 
L 172.096297 271.015836 
L 175.359156 271.790767 
L 178.622016 272.349233 
L 182.700591 272.802388 
L 187.59488 273.095865 
L 194.936315 273.26278 
L 210.434899 273.310987 
L 247.957786 273.214159 
L 252.852075 272.992411 
L 256.114935 272.647537 
L 258.56208 272.195542 
L 261.009225 271.483738 
L 262.640655 270.808042 
L 264.272085 269.921616 
L 265.903514 268.773589 
L 267.534944 267.305908 
L 269.166374 265.453978 
L 270.797804 263.147931 
L 272.429234 260.31464 
L 274.060664 256.880553 
L 275.692094 252.775349 
L 277.323524 247.936386 
L 278.954953 242.313788 
L 280.586383 235.875963 
L 282.217813 228.615221 
L 283.849243 220.553101 
L 286.296388 207.088504 
L 288.743533 192.299312 
L 296.900682 141.59414 
L 298.532112 133.042772 
L 300.163542 125.634856 
L 301.794972 119.603707 
L 302.610687 117.167484 
L 303.426402 115.145518 
L 304.242117 113.554793 
L 305.057831 112.408775 
L 305.873546 111.717222 
L 306.689261 111.486045 
L 306.689261 111.486045 
" clip-path="url(#p33ddb9614c)" style="fill: none; stroke: #d62728; stroke-width: 1.5; stroke-linecap: square"/>
   </g>
   <g id="line2d_14">
    <path d="M 144.361989 223.672789 
L 145.993419 223.799256 
L 147.624848 224.176726 
L 149.256278 224.79946 
L 150.887708 225.658049 
L 152.519138 226.739659 
L 154.150568 228.028345 
L 156.597713 230.308177 
L 159.044858 232.939352 
L 162.307717 236.85572 
L 167.202007 243.203996 
L 172.912011 250.585155 
L 176.174871 254.494722 
L 179.437731 258.046472 
L 181.884876 260.436554 
L 184.332021 262.576349 
L 186.779165 264.46265 
L 189.22631 266.100697 
L 191.673455 267.502467 
L 194.1206 268.684936 
L 196.567745 269.668386 
L 199.830604 270.708308 
L 203.093464 271.486825 
L 206.356324 272.054273 
L 210.434899 272.53385 
L 215.329188 272.861474 
L 221.039193 272.99535 
L 226.749197 272.892725 
L 231.643487 272.56461 
L 234.906347 272.16285 
L 238.169207 271.548894 
L 240.616351 270.902322 
L 243.063496 270.050566 
L 245.510641 268.944565 
L 247.957786 267.528053 
L 249.589216 266.380414 
L 251.220646 265.046953 
L 252.852075 263.506845 
L 254.483505 261.738756 
L 256.114935 259.72122 
L 257.746365 257.433094 
L 259.377795 254.854085 
L 261.009225 251.965342 
L 262.640655 248.750099 
L 265.0878 243.285397 
L 267.534944 237.023804 
L 269.982089 229.956989 
L 272.429234 222.105171 
L 274.876379 213.521652 
L 278.139239 201.099299 
L 282.217813 184.467982 
L 289.559248 154.254569 
L 292.006392 145.031169 
L 294.453537 136.670821 
L 296.084967 131.702689 
L 297.716397 127.300765 
L 299.347827 123.528148 
L 300.979257 120.439992 
L 302.610687 118.082162 
L 303.426402 117.188631 
L 304.242117 116.490107 
L 305.057831 115.989249 
L 305.873546 115.687967 
L 306.689261 115.587411 
L 306.689261 115.587411 
" clip-path="url(#p33ddb9614c)" style="fill: none; stroke: #2ca02c; stroke-width: 1.5; stroke-linecap: square"/>
   </g>
   <g id="line2d_15">
    <path d="M 144.361989 228.548625 
L 145.993419 228.709923 
L 147.624848 229.190337 
L 149.256278 229.979555 
L 150.887708 231.060801 
L 152.519138 232.411426 
L 154.150568 234.003697 
L 156.597713 236.774602 
L 159.044858 239.89741 
L 163.123432 245.541122 
L 168.833437 253.442725 
L 172.096297 257.54145 
L 174.543441 260.299377 
L 176.990586 262.748008 
L 179.437731 264.87406 
L 181.884876 266.680833 
L 184.332021 268.1847 
L 186.779165 269.411388 
L 189.22631 270.392409 
L 191.673455 271.161909 
L 194.936315 271.917782 
L 198.199175 272.433644 
L 202.277749 272.838562 
L 207.172039 273.099262 
L 214.513473 273.253174 
L 226.749197 273.267339 
L 234.906347 273.096131 
L 239.800636 272.771519 
L 243.063496 272.34928 
L 245.510641 271.855289 
L 247.957786 271.143256 
L 250.404931 270.135173 
L 252.03636 269.251318 
L 253.66779 268.158892 
L 255.29922 266.819615 
L 256.93065 265.191106 
L 258.56208 263.227183 
L 260.19351 260.878404 
L 261.82494 258.092864 
L 263.45637 254.817279 
L 265.0878 250.998376 
L 266.719229 246.584585 
L 268.350659 241.528017 
L 269.982089 235.786696 
L 271.613519 229.326995 
L 273.244949 222.126188 
L 274.876379 214.175029 
L 277.323524 200.861017 
L 279.770668 185.979746 
L 282.217813 169.738122 
L 285.480673 146.534114 
L 292.822107 93.539997 
L 295.269252 77.800665 
L 296.900682 68.407017 
L 298.532112 60.106881 
L 300.163542 53.06639 
L 301.794972 47.430107 
L 302.610687 45.176592 
L 303.426402 43.316095 
L 304.242117 41.858558 
L 305.057831 40.811809 
L 305.873546 40.181488 
L 306.689261 39.971002 
L 306.689261 39.971002 
" clip-path="url(#p33ddb9614c)" style="fill: none; stroke: #ff7f0e; stroke-width: 1.5; stroke-linecap: square"/>
   </g>
   <g id="line2d_16">
    <path d="M 144.361989 219.6091 
L 145.993419 219.798472 
L 147.624848 220.362591 
L 149.256278 221.289604 
L 150.887708 222.560221 
L 152.519138 224.148377 
L 154.150568 226.022123 
L 156.597713 229.286777 
L 159.044858 232.972432 
L 163.123432 239.652641 
L 168.833437 249.056343 
L 172.096297 253.964397 
L 174.543441 257.282003 
L 176.990586 260.24018 
L 179.437731 262.820564 
L 181.884876 265.024374 
L 184.332021 266.868502 
L 186.779165 268.381288 
L 189.22631 269.59841 
L 191.673455 270.559198 
L 194.1206 271.303585 
L 197.38346 272.02506 
L 200.646319 272.510292 
L 204.724894 272.885418 
L 210.434899 273.147311 
L 218.592048 273.26768 
L 229.196342 273.220597 
L 235.722062 272.994307 
L 239.800636 272.643413 
L 243.063496 272.135818 
L 245.510641 271.548045 
L 247.957786 270.708143 
L 249.589216 269.965898 
L 251.220646 269.04233 
L 252.852075 267.902191 
L 254.483505 266.505849 
L 256.114935 264.809373 
L 257.746365 262.764818 
L 259.377795 260.320733 
L 261.009225 257.422938 
L 262.640655 254.01558 
L 264.272085 250.042508 
L 265.903514 245.448942 
L 267.534944 240.183458 
L 269.166374 234.20022 
L 270.797804 227.461453 
L 272.429234 219.94004 
L 274.060664 211.622185 
L 276.507809 197.661661 
L 278.954953 182.004892 
L 281.402098 164.845754 
L 284.664958 140.182116 
L 292.822107 76.961271 
L 295.269252 60.154017 
L 296.900682 50.136967 
L 298.532112 41.2942 
L 300.163542 33.79922 
L 301.794972 27.8028 
L 302.610687 25.406195 
L 303.426402 23.427946 
L 304.242117 21.8784 
L 305.057831 20.765703 
L 305.873546 20.095722 
L 306.689261 19.872 
L 306.689261 19.872 
" clip-path="url(#p33ddb9614c)" style="fill: none; stroke: #1f77b4; stroke-width: 1.5; stroke-linecap: square"/>
   </g>
   <g id="patch_21">
    <path d="M 46.965625 273.312 
L 46.965625 7.2 
" style="fill: none; stroke: #000000; stroke-width: 0.8; stroke-linejoin: miter; stroke-linecap: square"/>
   </g>
   <g id="patch_22">
    <path d="M 404.085625 273.312 
L 404.085625 7.2 
" style="fill: none; stroke: #000000; stroke-width: 0.8; stroke-linejoin: miter; stroke-linecap: square"/>
   </g>
   <g id="patch_23">
    <path d="M 46.965625 273.312 
L 404.085625 273.312 
" style="fill: none; stroke: #000000; stroke-width: 0.8; stroke-linejoin: miter; stroke-linecap: square"/>
   </g>
   <g id="patch_24">
    <path d="M 46.965625 7.2 
L 404.085625 7.2 
" style="fill: none; stroke: #000000; stroke-width: 0.8; stroke-linejoin: miter; stroke-linecap: square"/>
   </g>
   <g id="legend_1">
    <g id="patch_25">
     <path d="M 53.965625 161.98125 
L 219.204688 161.98125 
Q 221.204688 161.98125 221.204688 159.98125 
L 221.204688 14.2 
Q 221.204688 12.2 219.204688 12.2 
L 53.965625 12.2 
Q 51.965625 12.2 51.965625 14.2 
L 51.965625 159.98125 
Q 51.965625 161.98125 53.965625 161.98125 
z
" style="fill: #ffffff; opacity: 0.8; stroke: #cccccc; stroke-linejoin: miter"/>
    </g>
    <g id="text_10">
     <!-- JobRole -->
     <g transform="translate(118.102344 23.798437) scale(0.1 -0.1)">
      <defs>
       <path id="DejaVuSans-4a" d="M 628 4666 
L 1259 4666 
L 1259 325 
Q 1259 -519 939 -900 
Q 619 -1281 -91 -1281 
L -331 -1281 
L -331 -750 
L -134 -750 
Q 284 -750 456 -515 
Q 628 -281 628 325 
L 628 4666 
z
" transform="scale(0.015625)"/>
       <path id="DejaVuSans-62" d="M 3116 1747 
Q 3116 2381 2855 2742 
Q 2594 3103 2138 3103 
Q 1681 3103 1420 2742 
Q 1159 2381 1159 1747 
Q 1159 1113 1420 752 
Q 1681 391 2138 391 
Q 2594 391 2855 752 
Q 3116 1113 3116 1747 
z
M 1159 2969 
Q 1341 3281 1617 3432 
Q 1894 3584 2278 3584 
Q 2916 3584 3314 3078 
Q 3713 2572 3713 1747 
Q 3713 922 3314 415 
Q 2916 -91 2278 -91 
Q 1894 -91 1617 61 
Q 1341 213 1159 525 
L 1159 0 
L 581 0 
L 581 4863 
L 1159 4863 
L 1159 2969 
z
" transform="scale(0.015625)"/>
       <path id="DejaVuSans-52" d="M 2841 2188 
Q 3044 2119 3236 1894 
Q 3428 1669 3622 1275 
L 4263 0 
L 3584 0 
L 2988 1197 
Q 2756 1666 2539 1819 
Q 2322 1972 1947 1972 
L 1259 1972 
L 1259 0 
L 628 0 
L 628 4666 
L 2053 4666 
Q 2853 4666 3247 4331 
Q 3641 3997 3641 3322 
Q 3641 2881 3436 2590 
Q 3231 2300 2841 2188 
z
M 1259 4147 
L 1259 2491 
L 2053 2491 
Q 2509 2491 2742 2702 
Q 2975 2913 2975 3322 
Q 2975 3731 2742 3939 
Q 2509 4147 2053 4147 
L 1259 4147 
z
" transform="scale(0.015625)"/>
       <path id="DejaVuSans-6c" d="M 603 4863 
L 1178 4863 
L 1178 0 
L 603 0 
L 603 4863 
z
" transform="scale(0.015625)"/>
      </defs>
      <use xlink:href="#DejaVuSans-4a"/>
      <use xlink:href="#DejaVuSans-6f" x="29.492188"/>
      <use xlink:href="#DejaVuSans-62" x="90.673828"/>
      <use xlink:href="#DejaVuSans-52" x="154.150391"/>
      <use xlink:href="#DejaVuSans-6f" x="219.132812"/>
      <use xlink:href="#DejaVuSans-6c" x="280.314453"/>
      <use xlink:href="#DejaVuSans-65" x="308.097656"/>
     </g>
    </g>
    <g id="patch_26">
     <path d="M 55.965625 38.476562 
L 75.965625 38.476562 
L 75.965625 31.476562 
L 55.965625 31.476562 
z
" style="fill: #1f77b4; fill-opacity: 0.5; stroke: #000000; stroke-linejoin: miter"/>
    </g>
    <g id="text_11">
     <!-- Sales Executive -->
     <g transform="translate(83.965625 38.476562) scale(0.1 -0.1)">
      <defs>
       <path id="DejaVuSans-53" d="M 3425 4513 
L 3425 3897 
Q 3066 4069 2747 4153 
Q 2428 4238 2131 4238 
Q 1616 4238 1336 4038 
Q 1056 3838 1056 3469 
Q 1056 3159 1242 3001 
Q 1428 2844 1947 2747 
L 2328 2669 
Q 3034 2534 3370 2195 
Q 3706 1856 3706 1288 
Q 3706 609 3251 259 
Q 2797 -91 1919 -91 
Q 1588 -91 1214 -16 
Q 841 59 441 206 
L 441 856 
Q 825 641 1194 531 
Q 1563 422 1919 422 
Q 2459 422 2753 634 
Q 3047 847 3047 1241 
Q 3047 1584 2836 1778 
Q 2625 1972 2144 2069 
L 1759 2144 
Q 1053 2284 737 2584 
Q 422 2884 422 3419 
Q 422 4038 858 4394 
Q 1294 4750 2059 4750 
Q 2388 4750 2728 4690 
Q 3069 4631 3425 4513 
z
" transform="scale(0.015625)"/>
       <path id="DejaVuSans-61" d="M 2194 1759 
Q 1497 1759 1228 1600 
Q 959 1441 959 1056 
Q 959 750 1161 570 
Q 1363 391 1709 391 
Q 2188 391 2477 730 
Q 2766 1069 2766 1631 
L 2766 1759 
L 2194 1759 
z
M 3341 1997 
L 3341 0 
L 2766 0 
L 2766 531 
Q 2569 213 2275 61 
Q 1981 -91 1556 -91 
Q 1019 -91 701 211 
Q 384 513 384 1019 
Q 384 1609 779 1909 
Q 1175 2209 1959 2209 
L 2766 2209 
L 2766 2266 
Q 2766 2663 2505 2880 
Q 2244 3097 1772 3097 
Q 1472 3097 1187 3025 
Q 903 2953 641 2809 
L 641 3341 
Q 956 3463 1253 3523 
Q 1550 3584 1831 3584 
Q 2591 3584 2966 3190 
Q 3341 2797 3341 1997 
z
" transform="scale(0.015625)"/>
       <path id="DejaVuSans-20" transform="scale(0.015625)"/>
       <path id="DejaVuSans-45" d="M 628 4666 
L 3578 4666 
L 3578 4134 
L 1259 4134 
L 1259 2753 
L 3481 2753 
L 3481 2222 
L 1259 2222 
L 1259 531 
L 3634 531 
L 3634 0 
L 628 0 
L 628 4666 
z
" transform="scale(0.015625)"/>
       <path id="DejaVuSans-78" d="M 3513 3500 
L 2247 1797 
L 3578 0 
L 2900 0 
L 1881 1375 
L 863 0 
L 184 0 
L 1544 1831 
L 300 3500 
L 978 3500 
L 1906 2253 
L 2834 3500 
L 3513 3500 
z
" transform="scale(0.015625)"/>
       <path id="DejaVuSans-63" d="M 3122 3366 
L 3122 2828 
Q 2878 2963 2633 3030 
Q 2388 3097 2138 3097 
Q 1578 3097 1268 2742 
Q 959 2388 959 1747 
Q 959 1106 1268 751 
Q 1578 397 2138 397 
Q 2388 397 2633 464 
Q 2878 531 3122 666 
L 3122 134 
Q 2881 22 2623 -34 
Q 2366 -91 2075 -91 
Q 1284 -91 818 406 
Q 353 903 353 1747 
Q 353 2603 823 3093 
Q 1294 3584 2113 3584 
Q 2378 3584 2631 3529 
Q 2884 3475 3122 3366 
z
" transform="scale(0.015625)"/>
       <path id="DejaVuSans-76" d="M 191 3500 
L 800 3500 
L 1894 563 
L 2988 3500 
L 3597 3500 
L 2284 0 
L 1503 0 
L 191 3500 
z
" transform="scale(0.015625)"/>
      </defs>
      <use xlink:href="#DejaVuSans-53"/>
      <use xlink:href="#DejaVuSans-61" x="63.476562"/>
      <use xlink:href="#DejaVuSans-6c" x="124.755859"/>
      <use xlink:href="#DejaVuSans-65" x="152.539062"/>
      <use xlink:href="#DejaVuSans-73" x="214.0625"/>
      <use xlink:href="#DejaVuSans-20" x="266.162109"/>
      <use xlink:href="#DejaVuSans-45" x="297.949219"/>
      <use xlink:href="#DejaVuSans-78" x="361.132812"/>
      <use xlink:href="#DejaVuSans-65" x="417.1875"/>
      <use xlink:href="#DejaVuSans-63" x="478.710938"/>
      <use xlink:href="#DejaVuSans-75" x="533.691406"/>
      <use xlink:href="#DejaVuSans-74" x="597.070312"/>
      <use xlink:href="#DejaVuSans-69" x="636.279297"/>
      <use xlink:href="#DejaVuSans-76" x="664.0625"/>
      <use xlink:href="#DejaVuSans-65" x="723.242188"/>
     </g>
    </g>
    <g id="patch_27">
     <path d="M 55.965625 53.154687 
L 75.965625 53.154687 
L 75.965625 46.154687 
L 55.965625 46.154687 
z
" style="fill: #ff7f0e; fill-opacity: 0.5; stroke: #000000; stroke-linejoin: miter"/>
    </g>
    <g id="text_12">
     <!-- Research Scientist -->
     <g transform="translate(83.965625 53.154687) scale(0.1 -0.1)">
      <defs>
       <path id="DejaVuSans-68" d="M 3513 2113 
L 3513 0 
L 2938 0 
L 2938 2094 
Q 2938 2591 2744 2837 
Q 2550 3084 2163 3084 
Q 1697 3084 1428 2787 
Q 1159 2491 1159 1978 
L 1159 0 
L 581 0 
L 581 4863 
L 1159 4863 
L 1159 2956 
Q 1366 3272 1645 3428 
Q 1925 3584 2291 3584 
Q 2894 3584 3203 3211 
Q 3513 2838 3513 2113 
z
" transform="scale(0.015625)"/>
      </defs>
      <use xlink:href="#DejaVuSans-52"/>
      <use xlink:href="#DejaVuSans-65" x="64.982422"/>
      <use xlink:href="#DejaVuSans-73" x="126.505859"/>
      <use xlink:href="#DejaVuSans-65" x="178.605469"/>
      <use xlink:href="#DejaVuSans-61" x="240.128906"/>
      <use xlink:href="#DejaVuSans-72" x="301.408203"/>
      <use xlink:href="#DejaVuSans-63" x="340.271484"/>
      <use xlink:href="#DejaVuSans-68" x="395.251953"/>
      <use xlink:href="#DejaVuSans-20" x="458.630859"/>
      <use xlink:href="#DejaVuSans-53" x="490.417969"/>
      <use xlink:href="#DejaVuSans-63" x="553.894531"/>
      <use xlink:href="#DejaVuSans-69" x="608.875"/>
      <use xlink:href="#DejaVuSans-65" x="636.658203"/>
      <use xlink:href="#DejaVuSans-6e" x="698.181641"/>
      <use xlink:href="#DejaVuSans-74" x="761.560547"/>
      <use xlink:href="#DejaVuSans-69" x="800.769531"/>
      <use xlink:href="#DejaVuSans-73" x="828.552734"/>
      <use xlink:href="#DejaVuSans-74" x="880.652344"/>
     </g>
    </g>
    <g id="patch_28">
     <path d="M 55.965625 67.832812 
L 75.965625 67.832812 
L 75.965625 60.832812 
L 55.965625 60.832812 
z
" style="fill: #2ca02c; fill-opacity: 0.5; stroke: #000000; stroke-linejoin: miter"/>
    </g>
    <g id="text_13">
     <!-- Laboratory Technician -->
     <g transform="translate(83.965625 67.832812) scale(0.1 -0.1)">
      <defs>
       <path id="DejaVuSans-4c" d="M 628 4666 
L 1259 4666 
L 1259 531 
L 3531 531 
L 3531 0 
L 628 0 
L 628 4666 
z
" transform="scale(0.015625)"/>
       <path id="DejaVuSans-79" d="M 2059 -325 
Q 1816 -950 1584 -1140 
Q 1353 -1331 966 -1331 
L 506 -1331 
L 506 -850 
L 844 -850 
Q 1081 -850 1212 -737 
Q 1344 -625 1503 -206 
L 1606 56 
L 191 3500 
L 800 3500 
L 1894 763 
L 2988 3500 
L 3597 3500 
L 2059 -325 
z
" transform="scale(0.015625)"/>
       <path id="DejaVuSans-54" d="M -19 4666 
L 3928 4666 
L 3928 4134 
L 2272 4134 
L 2272 0 
L 1638 0 
L 1638 4134 
L -19 4134 
L -19 4666 
z
" transform="scale(0.015625)"/>
      </defs>
      <use xlink:href="#DejaVuSans-4c"/>
      <use xlink:href="#DejaVuSans-61" x="55.712891"/>
      <use xlink:href="#DejaVuSans-62" x="116.992188"/>
      <use xlink:href="#DejaVuSans-6f" x="180.46875"/>
      <use xlink:href="#DejaVuSans-72" x="241.650391"/>
      <use xlink:href="#DejaVuSans-61" x="282.763672"/>
      <use xlink:href="#DejaVuSans-74" x="344.042969"/>
      <use xlink:href="#DejaVuSans-6f" x="383.251953"/>
      <use xlink:href="#DejaVuSans-72" x="444.433594"/>
      <use xlink:href="#DejaVuSans-79" x="485.546875"/>
      <use xlink:href="#DejaVuSans-20" x="544.726562"/>
      <use xlink:href="#DejaVuSans-54" x="576.513672"/>
      <use xlink:href="#DejaVuSans-65" x="620.597656"/>
      <use xlink:href="#DejaVuSans-63" x="682.121094"/>
      <use xlink:href="#DejaVuSans-68" x="737.101562"/>
      <use xlink:href="#DejaVuSans-6e" x="800.480469"/>
      <use xlink:href="#DejaVuSans-69" x="863.859375"/>
      <use xlink:href="#DejaVuSans-63" x="891.642578"/>
      <use xlink:href="#DejaVuSans-69" x="946.623047"/>
      <use xlink:href="#DejaVuSans-61" x="974.40625"/>
      <use xlink:href="#DejaVuSans-6e" x="1035.685547"/>
     </g>
    </g>
    <g id="patch_29">
     <path d="M 55.965625 82.510937 
L 75.965625 82.510937 
L 75.965625 75.510937 
L 55.965625 75.510937 
z
" style="fill: #d62728; fill-opacity: 0.5; stroke: #000000; stroke-linejoin: miter"/>
    </g>
    <g id="text_14">
     <!-- Manufacturing Director -->
     <g transform="translate(83.965625 82.510937) scale(0.1 -0.1)">
      <defs>
       <path id="DejaVuSans-4d" d="M 628 4666 
L 1569 4666 
L 2759 1491 
L 3956 4666 
L 4897 4666 
L 4897 0 
L 4281 0 
L 4281 4097 
L 3078 897 
L 2444 897 
L 1241 4097 
L 1241 0 
L 628 0 
L 628 4666 
z
" transform="scale(0.015625)"/>
       <path id="DejaVuSans-66" d="M 2375 4863 
L 2375 4384 
L 1825 4384 
Q 1516 4384 1395 4259 
Q 1275 4134 1275 3809 
L 1275 3500 
L 2222 3500 
L 2222 3053 
L 1275 3053 
L 1275 0 
L 697 0 
L 697 3053 
L 147 3053 
L 147 3500 
L 697 3500 
L 697 3744 
Q 697 4328 969 4595 
Q 1241 4863 1831 4863 
L 2375 4863 
z
" transform="scale(0.015625)"/>
       <path id="DejaVuSans-67" d="M 2906 1791 
Q 2906 2416 2648 2759 
Q 2391 3103 1925 3103 
Q 1463 3103 1205 2759 
Q 947 2416 947 1791 
Q 947 1169 1205 825 
Q 1463 481 1925 481 
Q 2391 481 2648 825 
Q 2906 1169 2906 1791 
z
M 3481 434 
Q 3481 -459 3084 -895 
Q 2688 -1331 1869 -1331 
Q 1566 -1331 1297 -1286 
Q 1028 -1241 775 -1147 
L 775 -588 
Q 1028 -725 1275 -790 
Q 1522 -856 1778 -856 
Q 2344 -856 2625 -561 
Q 2906 -266 2906 331 
L 2906 616 
Q 2728 306 2450 153 
Q 2172 0 1784 0 
Q 1141 0 747 490 
Q 353 981 353 1791 
Q 353 2603 747 3093 
Q 1141 3584 1784 3584 
Q 2172 3584 2450 3431 
Q 2728 3278 2906 2969 
L 2906 3500 
L 3481 3500 
L 3481 434 
z
" transform="scale(0.015625)"/>
       <path id="DejaVuSans-44" d="M 1259 4147 
L 1259 519 
L 2022 519 
Q 2988 519 3436 956 
Q 3884 1394 3884 2338 
Q 3884 3275 3436 3711 
Q 2988 4147 2022 4147 
L 1259 4147 
z
M 628 4666 
L 1925 4666 
Q 3281 4666 3915 4102 
Q 4550 3538 4550 2338 
Q 4550 1131 3912 565 
Q 3275 0 1925 0 
L 628 0 
L 628 4666 
z
" transform="scale(0.015625)"/>
      </defs>
      <use xlink:href="#DejaVuSans-4d"/>
      <use xlink:href="#DejaVuSans-61" x="86.279297"/>
      <use xlink:href="#DejaVuSans-6e" x="147.558594"/>
      <use xlink:href="#DejaVuSans-75" x="210.9375"/>
      <use xlink:href="#DejaVuSans-66" x="274.316406"/>
      <use xlink:href="#DejaVuSans-61" x="309.521484"/>
      <use xlink:href="#DejaVuSans-63" x="370.800781"/>
      <use xlink:href="#DejaVuSans-74" x="425.78125"/>
      <use xlink:href="#DejaVuSans-75" x="464.990234"/>
      <use xlink:href="#DejaVuSans-72" x="528.369141"/>
      <use xlink:href="#DejaVuSans-69" x="569.482422"/>
      <use xlink:href="#DejaVuSans-6e" x="597.265625"/>
      <use xlink:href="#DejaVuSans-67" x="660.644531"/>
      <use xlink:href="#DejaVuSans-20" x="724.121094"/>
      <use xlink:href="#DejaVuSans-44" x="755.908203"/>
      <use xlink:href="#DejaVuSans-69" x="832.910156"/>
      <use xlink:href="#DejaVuSans-72" x="860.693359"/>
      <use xlink:href="#DejaVuSans-65" x="899.556641"/>
      <use xlink:href="#DejaVuSans-63" x="961.080078"/>
      <use xlink:href="#DejaVuSans-74" x="1016.060547"/>
      <use xlink:href="#DejaVuSans-6f" x="1055.269531"/>
      <use xlink:href="#DejaVuSans-72" x="1116.451172"/>
     </g>
    </g>
    <g id="patch_30">
     <path d="M 55.965625 97.189062 
L 75.965625 97.189062 
L 75.965625 90.189062 
L 55.965625 90.189062 
z
" style="fill: #9467bd; fill-opacity: 0.5; stroke: #000000; stroke-linejoin: miter"/>
    </g>
    <g id="text_15">
     <!-- Healthcare Representative -->
     <g transform="translate(83.965625 97.189062) scale(0.1 -0.1)">
      <defs>
       <path id="DejaVuSans-48" d="M 628 4666 
L 1259 4666 
L 1259 2753 
L 3553 2753 
L 3553 4666 
L 4184 4666 
L 4184 0 
L 3553 0 
L 3553 2222 
L 1259 2222 
L 1259 0 
L 628 0 
L 628 4666 
z
" transform="scale(0.015625)"/>
       <path id="DejaVuSans-70" d="M 1159 525 
L 1159 -1331 
L 581 -1331 
L 581 3500 
L 1159 3500 
L 1159 2969 
Q 1341 3281 1617 3432 
Q 1894 3584 2278 3584 
Q 2916 3584 3314 3078 
Q 3713 2572 3713 1747 
Q 3713 922 3314 415 
Q 2916 -91 2278 -91 
Q 1894 -91 1617 61 
Q 1341 213 1159 525 
z
M 3116 1747 
Q 3116 2381 2855 2742 
Q 2594 3103 2138 3103 
Q 1681 3103 1420 2742 
Q 1159 2381 1159 1747 
Q 1159 1113 1420 752 
Q 1681 391 2138 391 
Q 2594 391 2855 752 
Q 3116 1113 3116 1747 
z
" transform="scale(0.015625)"/>
      </defs>
      <use xlink:href="#DejaVuSans-48"/>
      <use xlink:href="#DejaVuSans-65" x="75.195312"/>
      <use xlink:href="#DejaVuSans-61" x="136.71875"/>
      <use xlink:href="#DejaVuSans-6c" x="197.998047"/>
      <use xlink:href="#DejaVuSans-74" x="225.78125"/>
      <use xlink:href="#DejaVuSans-68" x="264.990234"/>
      <use xlink:href="#DejaVuSans-63" x="328.369141"/>
      <use xlink:href="#DejaVuSans-61" x="383.349609"/>
      <use xlink:href="#DejaVuSans-72" x="444.628906"/>
      <use xlink:href="#DejaVuSans-65" x="483.492188"/>
      <use xlink:href="#DejaVuSans-20" x="545.015625"/>
      <use xlink:href="#DejaVuSans-52" x="576.802734"/>
      <use xlink:href="#DejaVuSans-65" x="641.785156"/>
      <use xlink:href="#DejaVuSans-70" x="703.308594"/>
      <use xlink:href="#DejaVuSans-72" x="766.785156"/>
      <use xlink:href="#DejaVuSans-65" x="805.648438"/>
      <use xlink:href="#DejaVuSans-73" x="867.171875"/>
      <use xlink:href="#DejaVuSans-65" x="919.271484"/>
      <use xlink:href="#DejaVuSans-6e" x="980.794922"/>
      <use xlink:href="#DejaVuSans-74" x="1044.173828"/>
      <use xlink:href="#DejaVuSans-61" x="1083.382812"/>
      <use xlink:href="#DejaVuSans-74" x="1144.662109"/>
      <use xlink:href="#DejaVuSans-69" x="1183.871094"/>
      <use xlink:href="#DejaVuSans-76" x="1211.654297"/>
      <use xlink:href="#DejaVuSans-65" x="1270.833984"/>
     </g>
    </g>
    <g id="patch_31">
     <path d="M 55.965625 111.867187 
L 75.965625 111.867187 
L 75.965625 104.867187 
L 55.965625 104.867187 
z
" style="fill: #8c564b; fill-opacity: 0.5; stroke: #000000; stroke-linejoin: miter"/>
    </g>
    <g id="text_16">
     <!-- Manager -->
     <g transform="translate(83.965625 111.867187) scale(0.1 -0.1)">
      <use xlink:href="#DejaVuSans-4d"/>
      <use xlink:href="#DejaVuSans-61" x="86.279297"/>
      <use xlink:href="#DejaVuSans-6e" x="147.558594"/>
      <use xlink:href="#DejaVuSans-61" x="210.9375"/>
      <use xlink:href="#DejaVuSans-67" x="272.216797"/>
      <use xlink:href="#DejaVuSans-65" x="335.693359"/>
      <use xlink:href="#DejaVuSans-72" x="397.216797"/>
     </g>
    </g>
    <g id="patch_32">
     <path d="M 55.965625 126.545312 
L 75.965625 126.545312 
L 75.965625 119.545312 
L 55.965625 119.545312 
z
" style="fill: #e377c2; fill-opacity: 0.5; stroke: #000000; stroke-linejoin: miter"/>
    </g>
    <g id="text_17">
     <!-- Sales Representative -->
     <g transform="translate(83.965625 126.545312) scale(0.1 -0.1)">
      <use xlink:href="#DejaVuSans-53"/>
      <use xlink:href="#DejaVuSans-61" x="63.476562"/>
      <use xlink:href="#DejaVuSans-6c" x="124.755859"/>
      <use xlink:href="#DejaVuSans-65" x="152.539062"/>
      <use xlink:href="#DejaVuSans-73" x="214.0625"/>
      <use xlink:href="#DejaVuSans-20" x="266.162109"/>
      <use xlink:href="#DejaVuSans-52" x="297.949219"/>
      <use xlink:href="#DejaVuSans-65" x="362.931641"/>
      <use xlink:href="#DejaVuSans-70" x="424.455078"/>
      <use xlink:href="#DejaVuSans-72" x="487.931641"/>
      <use xlink:href="#DejaVuSans-65" x="526.794922"/>
      <use xlink:href="#DejaVuSans-73" x="588.318359"/>
      <use xlink:href="#DejaVuSans-65" x="640.417969"/>
      <use xlink:href="#DejaVuSans-6e" x="701.941406"/>
      <use xlink:href="#DejaVuSans-74" x="765.320312"/>
      <use xlink:href="#DejaVuSans-61" x="804.529297"/>
      <use xlink:href="#DejaVuSans-74" x="865.808594"/>
      <use xlink:href="#DejaVuSans-69" x="905.017578"/>
      <use xlink:href="#DejaVuSans-76" x="932.800781"/>
      <use xlink:href="#DejaVuSans-65" x="991.980469"/>
     </g>
    </g>
    <g id="patch_33">
     <path d="M 55.965625 141.223437 
L 75.965625 141.223437 
L 75.965625 134.223437 
L 55.965625 134.223437 
z
" style="fill: #7f7f7f; fill-opacity: 0.5; stroke: #000000; stroke-linejoin: miter"/>
    </g>
    <g id="text_18">
     <!-- Research Director -->
     <g transform="translate(83.965625 141.223437) scale(0.1 -0.1)">
      <use xlink:href="#DejaVuSans-52"/>
      <use xlink:href="#DejaVuSans-65" x="64.982422"/>
      <use xlink:href="#DejaVuSans-73" x="126.505859"/>
      <use xlink:href="#DejaVuSans-65" x="178.605469"/>
      <use xlink:href="#DejaVuSans-61" x="240.128906"/>
      <use xlink:href="#DejaVuSans-72" x="301.408203"/>
      <use xlink:href="#DejaVuSans-63" x="340.271484"/>
      <use xlink:href="#DejaVuSans-68" x="395.251953"/>
      <use xlink:href="#DejaVuSans-20" x="458.630859"/>
      <use xlink:href="#DejaVuSans-44" x="490.417969"/>
      <use xlink:href="#DejaVuSans-69" x="567.419922"/>
      <use xlink:href="#DejaVuSans-72" x="595.203125"/>
      <use xlink:href="#DejaVuSans-65" x="634.066406"/>
      <use xlink:href="#DejaVuSans-63" x="695.589844"/>
      <use xlink:href="#DejaVuSans-74" x="750.570312"/>
      <use xlink:href="#DejaVuSans-6f" x="789.779297"/>
      <use xlink:href="#DejaVuSans-72" x="850.960938"/>
     </g>
    </g>
    <g id="patch_34">
     <path d="M 55.965625 155.901562 
L 75.965625 155.901562 
L 75.965625 148.901562 
L 55.965625 148.901562 
z
" style="fill: #bcbd22; fill-opacity: 0.5; stroke: #000000; stroke-linejoin: miter"/>
    </g>
    <g id="text_19">
     <!-- Human Resources -->
     <g transform="translate(83.965625 155.901562) scale(0.1 -0.1)">
      <defs>
       <path id="DejaVuSans-6d" d="M 3328 2828 
Q 3544 3216 3844 3400 
Q 4144 3584 4550 3584 
Q 5097 3584 5394 3201 
Q 5691 2819 5691 2113 
L 5691 0 
L 5113 0 
L 5113 2094 
Q 5113 2597 4934 2840 
Q 4756 3084 4391 3084 
Q 3944 3084 3684 2787 
Q 3425 2491 3425 1978 
L 3425 0 
L 2847 0 
L 2847 2094 
Q 2847 2600 2669 2842 
Q 2491 3084 2119 3084 
Q 1678 3084 1418 2786 
Q 1159 2488 1159 1978 
L 1159 0 
L 581 0 
L 581 3500 
L 1159 3500 
L 1159 2956 
Q 1356 3278 1631 3431 
Q 1906 3584 2284 3584 
Q 2666 3584 2933 3390 
Q 3200 3197 3328 2828 
z
" transform="scale(0.015625)"/>
      </defs>
      <use xlink:href="#DejaVuSans-48"/>
      <use xlink:href="#DejaVuSans-75" x="75.195312"/>
      <use xlink:href="#DejaVuSans-6d" x="138.574219"/>
      <use xlink:href="#DejaVuSans-61" x="235.986328"/>
      <use xlink:href="#DejaVuSans-6e" x="297.265625"/>
      <use xlink:href="#DejaVuSans-20" x="360.644531"/>
      <use xlink:href="#DejaVuSans-52" x="392.431641"/>
      <use xlink:href="#DejaVuSans-65" x="457.414062"/>
      <use xlink:href="#DejaVuSans-73" x="518.9375"/>
      <use xlink:href="#DejaVuSans-6f" x="571.037109"/>
      <use xlink:href="#DejaVuSans-75" x="632.21875"/>
      <use xlink:href="#DejaVuSans-72" x="695.597656"/>
      <use xlink:href="#DejaVuSans-63" x="734.460938"/>
      <use xlink:href="#DejaVuSans-65" x="789.441406"/>
      <use xlink:href="#DejaVuSans-73" x="850.964844"/>
     </g>
    </g>
   </g>
  </g>
 </g>
 <defs>
  <clipPath id="p33ddb9614c">
   <rect x="46.965625" y="7.2" width="357.12" height="266.112"/>
  </clipPath>
 </defs>
</svg>
